#N canvas 226 123 801 556 12;
#X obj 76 83 bng 45 250 50 0 lp-trig-1 loop-button-1 empty 17 7 0 10
-262144 -1 -1;
#X obj 150 83 bng 45 250 50 0 lp-trig-2 loop-button-2 empty 17 7 0
10 -262144 -1 -1;
#X obj 218 83 bng 45 250 50 0 lp-trig-3 loop-button-3 empty 17 7 0
10 -262144 -1 -1;
#X obj 290 84 bng 45 250 50 0 lp-trig-4 loop-button-4 empty 17 7 0
10 -262144 -1 -1;
#X obj 76 163 bng 45 250 50 0 lp-trig-5 loop-button-5 empty 17 7 0
10 -262144 -1 -1;
#X obj 150 163 bng 45 250 50 0 lp-trig-6 loop-button-6 empty 17 7 0
10 -262144 -1 -1;
#X obj 219 164 bng 45 250 50 0 lp-trig-7 loop-button-7 empty 17 7 0
10 -262144 -1 -1;
#X obj 290 164 bng 45 250 50 0 lp-trig-8 loop-button-8 empty 17 7 0
10 -262144 -1 -1;
#X obj 74 463 bng 45 250 50 0 kick-button-1 button-13 kick_1 0 55 0
10 -4034 -1 -1;
#X obj 76 391 bng 45 250 50 0 snare-button-1 button-9 snare_1 0 55
0 10 -258113 -1 -1;
#X obj 79 250 bng 45 250 50 0 hh-button-1 button-1 Highhat_1 0 55 0
9 -4160 -1 -1;
#X obj 78 320 bng 45 250 50 0 crash-button-1 button-5 Crash_1 0 55
0 10 -4032 -1 -1;
#X obj 144 464 bng 45 250 50 0 kick-button-2 button-14 kick_2 0 55
0 10 -4034 -1 -1;
#X obj 144 392 bng 45 250 50 0 snare-button-2 button-10 snare_2 0 55
0 10 -258113 -1 -1;
#X obj 150 251 bng 45 250 50 0 hh-button-2 button-2 Highhat_2 0 55
0 9 -4160 -1 -1;
#X obj 145 319 bng 45 250 50 0 crash-button-2 button-6 Crash_2 0 55
0 10 -4032 -1 -1;
#X obj 126 83 bng 15 250 50 0 clear-1 empty empty 17 7 0 10 -258113
-1 -1;
#X obj 198 83 bng 15 250 50 0 clear-2 empty empty 17 7 0 10 -258113
-1 -1;
#X obj 268 84 bng 15 250 50 0 clear-3 empty empty 17 7 0 10 -258113
-1 -1;
#X obj 341 85 bng 15 250 50 0 clear-4 empty empty 17 7 0 10 -258113
-1 -1;
#X obj 126 163 bng 15 250 50 0 clear-5 empty empty 17 7 0 10 -258113
-1 -1;
#X obj 198 163 bng 15 250 50 0 clear-6 empty empty 17 7 0 10 -258113
-1 -1;
#X obj 268 164 bng 15 250 50 0 clear-7 empty empty 17 7 0 10 -258113
-1 -1;
#X obj 341 165 bng 15 250 50 0 clear-8 empty empty 17 7 0 10 -258113
-1 -1;
#N canvas 0 97 1280 623 router 0;
#X obj 169 41 netreceive 3000;
#X obj 20 248 s selected_kit;
#X obj 20 187 loadbang;
#X msg 20 216 1;
#X text 167 17 Open socket for Python input;
#X obj 17 116 s dsp_status;
#X obj 17 60 loadbang;
#X msg 17 87 1;
#X text 14 37 init value DSP: on;
#X text 16 160 init value kit: 1;
#X obj 166 165 select 1 2 3 4 5 6 7 8 9 10 11 12 13 14 15 16;
#X obj 185 530 s button-2;
#X obj 205 506 s button-3;
#X obj 224 483 s button-4;
#X obj 244 458 s button-5;
#X obj 263 435 s button-6;
#X obj 283 411 s button-7;
#X obj 302 388 s button-8;
#X obj 322 364 s button-9;
#X obj 341 341 s button-10;
#X obj 361 317 s button-11;
#X obj 380 294 s button-12;
#X obj 400 270 s button-13;
#X obj 419 247 s button-14;
#X obj 439 223 s button-15;
#X obj 458 201 s button-16;
#X obj 573 169 select 1 2 3 4 5 6 7 8;
#X obj 573 386 s clear-1;
#X obj 591 362 s clear-2;
#X obj 610 337 s clear-3;
#X obj 629 312 s clear-4;
#X obj 648 287 s clear-5;
#X obj 667 262 s clear-6;
#X obj 686 238 s clear-7;
#X obj 705 215 s clear-8;
#X text 594 149 clear loop: 1-8;
#X obj 573 194 bng 15 250 50 0 empty empty empty 17 7 0 10 -262144
-1 -1;
#X obj 591 194 bng 15 250 50 0 empty empty empty 17 7 0 10 -262144
-1 -1;
#X obj 610 194 bng 15 250 50 0 empty empty empty 17 7 0 10 -262144
-1 -1;
#X obj 629 194 bng 15 250 50 0 empty empty empty 17 7 0 10 -262144
-1 -1;
#X obj 648 194 bng 15 250 50 0 empty empty empty 17 7 0 10 -262144
-1 -1;
#X obj 667 194 bng 15 250 50 0 empty empty empty 17 7 0 10 -262144
-1 -1;
#X obj 686 194 bng 15 250 50 0 empty empty empty 17 7 0 10 -262144
-1 -1;
#X obj 705 194 bng 15 250 50 0 empty empty empty 17 7 0 10 -262144
-1 -1;
#X obj 670 91 s clear-all;
#X text 645 65 clear all loops;
#X text 16 19 channel 0;
#X text 16 144 channel 1;
#X text 599 135 channel 3;
#X text 689 46 channel 4;
#X obj 782 158 select 1 2 3 4 5 6 7 8;
#X obj 800 183 bng 15 250 50 0 empty empty empty 17 7 0 10 -262144
-1 -1;
#X obj 819 183 bng 15 250 50 0 empty empty empty 17 7 0 10 -262144
-1 -1;
#X obj 838 183 bng 15 250 50 0 empty empty empty 17 7 0 10 -262144
-1 -1;
#X obj 857 183 bng 15 250 50 0 empty empty empty 17 7 0 10 -262144
-1 -1;
#X obj 876 183 bng 15 250 50 0 empty empty empty 17 7 0 10 -262144
-1 -1;
#X obj 895 183 bng 15 250 50 0 empty empty empty 17 7 0 10 -262144
-1 -1;
#X obj 914 183 bng 15 250 50 0 empty empty empty 17 7 0 10 -262144
-1 -1;
#X text 808 124 channel 5;
#X text 803 138 overdub loop: 1-8;
#X obj 782 375 s overdub-1;
#X obj 800 351 s overdub-2;
#X obj 819 326 s overdub-3;
#X obj 838 301 s overdub-4;
#X obj 857 276 s overdub-5;
#X obj 876 251 s overdub-6;
#X obj 895 227 s overdub-7;
#X obj 914 204 s overdub-8;
#X obj 782 183 bng 15 250 50 0 empty empty empty 17 7 0 10 -262144
-1 -1;
#X obj 817 26 s audio_input_toggle;
#X text 834 4 channel 6;
#X text 816 48 set audio input vol to 1/0;
#X text 163 137 channel 2;
#X text 165 150 Drumpad buttons;
#X obj 167 77 route 0 1 2 3 4 5 6 7;
#X obj 397 438 select 1 2 3 4 5 6 7 8;
#X text 410 403 channel 7;
#X text 405 417 loop button 1-8;
#X obj 166 553 s button-1;
#X obj 398 621 s loop-button-1;
#X obj 415 596 s loop-button-2;
#X obj 435 572 s loop-button-3;
#X obj 453 551 s loop-button-4;
#X obj 472 529 s loop-button-5;
#X obj 492 508 s loop-button-6;
#X obj 510 486 s loop-button-7;
#X obj 529 464 s loop-button-8;
#X connect 0 0 74 0;
#X connect 2 0 3 0;
#X connect 3 0 1 0;
#X connect 6 0 7 0;
#X connect 7 0 5 0;
#X connect 10 0 78 0;
#X connect 10 1 11 0;
#X connect 10 2 12 0;
#X connect 10 3 13 0;
#X connect 10 4 14 0;
#X connect 10 5 15 0;
#X connect 10 6 16 0;
#X connect 10 7 17 0;
#X connect 10 8 18 0;
#X connect 10 9 19 0;
#X connect 10 10 20 0;
#X connect 10 11 21 0;
#X connect 10 12 22 0;
#X connect 10 13 23 0;
#X connect 10 14 24 0;
#X connect 10 15 25 0;
#X connect 26 0 36 0;
#X connect 26 1 37 0;
#X connect 26 2 38 0;
#X connect 26 3 39 0;
#X connect 26 4 40 0;
#X connect 26 5 41 0;
#X connect 26 6 42 0;
#X connect 26 7 43 0;
#X connect 36 0 27 0;
#X connect 37 0 28 0;
#X connect 38 0 29 0;
#X connect 39 0 30 0;
#X connect 40 0 31 0;
#X connect 41 0 32 0;
#X connect 42 0 33 0;
#X connect 43 0 34 0;
#X connect 50 0 68 0;
#X connect 50 1 51 0;
#X connect 50 2 52 0;
#X connect 50 3 53 0;
#X connect 50 4 54 0;
#X connect 50 5 55 0;
#X connect 50 6 56 0;
#X connect 50 7 57 0;
#X connect 51 0 61 0;
#X connect 52 0 62 0;
#X connect 53 0 63 0;
#X connect 54 0 64 0;
#X connect 55 0 65 0;
#X connect 56 0 66 0;
#X connect 57 0 67 0;
#X connect 68 0 60 0;
#X connect 74 0 5 0;
#X connect 74 1 1 0;
#X connect 74 2 10 0;
#X connect 74 3 26 0;
#X connect 74 4 44 0;
#X connect 74 5 50 0;
#X connect 74 6 69 0;
#X connect 74 7 75 0;
#X connect 75 0 79 0;
#X connect 75 1 80 0;
#X connect 75 2 81 0;
#X connect 75 3 82 0;
#X connect 75 4 83 0;
#X connect 75 5 84 0;
#X connect 75 6 85 0;
#X connect 75 7 86 0;
#X restore 382 88 pd router;
#N canvas 0 97 1280 623 drumbox 0;
#X obj 32 29 r selected_kit;
#N canvas 0 97 1280 623 load_sounds 0;
#X obj 768 25 inlet;
#N canvas 0 22 450 278 (subpatch) 0;
#X array kick-1 40403 float 2;
#X coords 0 0.1 40403 -0.1 100 50 1 0 0;
#X restore 36 219 graph;
#X obj 36 114 soundfiler;
#X floatatom 36 147 10 0 0 0 - - -;
#X msg 36 79 read -resize drum_sounds/kick_\$1_1.wav kick-1;
#X msg 37 296 read -resize drum_sounds/kick_\$1_2.wav kick-2;
#X obj 37 327 soundfiler;
#N canvas 0 22 450 278 (subpatch) 0;
#X array kick-2 24236 float 2;
#X coords 0 0.1 24236 -0.1 100 50 1 0 0;
#X restore 38 431 graph;
#X floatatom 37 361 10 0 0 0 - - -;
#X obj 36 180 s end-kick-1;
#X obj 37 392 s end-kick-2;
#X obj 422 111 soundfiler;
#N canvas 0 22 450 278 (subpatch) 0;
#X array snare-1 33075 float 2;
#X coords 0 0.1 33075 -0.1 100 50 1 0 0;
#X restore 423 215 graph;
#X floatatom 422 145 10 0 0 0 - - -;
#X msg 422 80 read -resize drum_sounds/snare_\$1_1.wav snare-1;
#X obj 422 176 s end-snare-1;
#X obj 422 327 soundfiler;
#N canvas 0 22 450 278 (subpatch) 0;
#X array snare-2 29287 float 2;
#X coords 0 0.1 29287 -0.1 100 50 1 0 0;
#X restore 423 431 graph;
#X floatatom 422 361 10 0 0 0 - - -;
#X msg 422 296 read -resize drum_sounds/snare_\$1_2.wav snare-2;
#X obj 422 392 s end-snare-2;
#X obj 787 112 soundfiler;
#N canvas 0 22 450 278 (subpatch) 0;
#X array hh-1 36201 float 2;
#X coords 0 0.1 36201 -0.1 100 50 1 0 0;
#X restore 788 216 graph;
#X floatatom 787 146 10 0 0 0 - - -;
#X obj 787 328 soundfiler;
#N canvas 0 22 450 278 (subpatch) 0;
#X array hh-2 43665 float 2;
#X coords 0 0.1 43665 -0.1 100 50 1 0 0;
#X restore 788 432 graph;
#X floatatom 787 362 10 0 0 0 - - -;
#X msg 787 81 read -resize drum_sounds/hh_\$1_1.wav hh-1;
#X obj 787 177 s end-hh-1;
#X msg 787 297 read -resize drum_sounds/hh_\$1_2.wav hh-2;
#X obj 787 393 s end-hh-2;
#X obj 1120 112 soundfiler;
#N canvas 0 22 450 278 (subpatch) 0;
#X array crash-1 24830 float 2;
#X coords 0 0.1 24830 -0.1 100 50 1 0 0;
#X restore 1121 216 graph;
#X floatatom 1120 146 10 0 0 0 - - -;
#X obj 1120 328 soundfiler;
#N canvas 0 22 450 278 (subpatch) 0;
#X array crash-2 27519 float 2;
#X coords 0 0.1 27519 -0.1 100 50 1 0 0;
#X restore 1121 432 graph;
#X floatatom 1120 362 10 0 0 0 - - -;
#X msg 1120 81 read -resize drum_sounds/crash_\$1_1.wav crash-1;
#X obj 1120 177 s end-crash-1;
#X msg 1120 297 read -resize drum_sounds/crash_\$1_2.wav crash-2;
#X obj 1120 393 s end-crash-2;
#X text 692 4 input: int value of selected_kit;
#N canvas 0 22 450 278 (subpatch) 0;
#X array kick-3 40403 float 2;
#X coords 0 0.1 40403 -0.1 100 50 1 0 0;
#X restore 31 669 graph;
#X obj 31 564 soundfiler;
#X floatatom 31 597 10 0 0 0 - - -;
#X obj 32 777 soundfiler;
#N canvas 0 22 450 278 (subpatch) 0;
#X array kick-4 24236 float 2;
#X coords 0 0.1 24236 -0.1 100 50 1 0 0;
#X restore 33 881 graph;
#X floatatom 32 811 10 0 0 0 - - -;
#X obj 417 561 soundfiler;
#N canvas 0 22 450 278 (subpatch) 0;
#X array snare-3 33075 float 2;
#X coords 0 0.1 33075 -0.1 100 50 1 0 0;
#X restore 418 665 graph;
#X floatatom 417 595 10 0 0 0 - - -;
#X obj 417 777 soundfiler;
#N canvas 0 22 450 278 (subpatch) 0;
#X array snare-4 29287 float 2;
#X coords 0 0.1 29287 -0.1 100 50 1 0 0;
#X restore 418 881 graph;
#X floatatom 417 811 10 0 0 0 - - -;
#X obj 782 562 soundfiler;
#N canvas 0 22 450 278 (subpatch) 0;
#X array hh-3 36201 float 2;
#X coords 0 0.1 36201 -0.1 100 50 1 0 0;
#X restore 783 666 graph;
#X floatatom 782 596 10 0 0 0 - - -;
#X obj 782 778 soundfiler;
#N canvas 0 22 450 278 (subpatch) 0;
#X array hh-4 43665 float 2;
#X coords 0 0.1 43665 -0.1 100 50 1 0 0;
#X restore 783 882 graph;
#X floatatom 782 812 10 0 0 0 - - -;
#X obj 1115 562 soundfiler;
#N canvas 0 22 450 278 (subpatch) 0;
#X array crash-3 24830 float 2;
#X coords 0 0.1 24830 -0.1 100 50 1 0 0;
#X restore 1116 666 graph;
#X floatatom 1115 596 10 0 0 0 - - -;
#X obj 1115 778 soundfiler;
#N canvas 0 22 450 278 (subpatch) 0;
#X array crash-4 27519 float 2;
#X coords 0 0.1 27519 -0.1 100 50 1 0 0;
#X restore 1116 882 graph;
#X floatatom 1115 812 10 0 0 0 - - -;
#X msg 31 529 read -resize drum_sounds/kick_\$1_1.wav kick-3;
#X obj 31 630 s end-kick-3;
#X msg 30 749 read -resize drum_sounds/kick_\$1_2.wav kick-4;
#X obj 32 842 s end-kick-4;
#X msg 417 530 read -resize drum_sounds/snare_\$1_1.wav snare-3;
#X obj 417 626 s end-snare-3;
#X msg 415 748 read -resize drum_sounds/snare_\$1_2.wav snare-4;
#X obj 417 842 s end-snare-4;
#X msg 782 531 read -resize drum_sounds/hh_\$1_1.wav hh-3;
#X obj 782 627 s end-hh-3;
#X msg 778 749 read -resize drum_sounds/hh_\$1_2.wav hh-4;
#X obj 782 843 s end-hh-4;
#X msg 1115 531 read -resize drum_sounds/crash_\$1_1.wav crash-3;
#X msg 1115 748 read -resize drum_sounds/crash_\$1_2.wav crash-4;
#X obj 1115 627 s end-crash-3;
#X obj 1115 843 s end-crash-4;
#X connect 0 0 4 0;
#X connect 0 0 5 0;
#X connect 0 0 14 0;
#X connect 0 0 19 0;
#X connect 0 0 27 0;
#X connect 0 0 29 0;
#X connect 0 0 37 0;
#X connect 0 0 39 0;
#X connect 0 0 66 0;
#X connect 0 0 70 0;
#X connect 0 0 74 0;
#X connect 0 0 78 0;
#X connect 0 0 68 0;
#X connect 0 0 72 0;
#X connect 0 0 76 0;
#X connect 0 0 79 0;
#X connect 2 0 3 0;
#X connect 3 0 9 0;
#X connect 4 0 2 0;
#X connect 5 0 6 0;
#X connect 6 0 8 0;
#X connect 8 0 10 0;
#X connect 11 0 13 0;
#X connect 13 0 15 0;
#X connect 14 0 11 0;
#X connect 16 0 18 0;
#X connect 18 0 20 0;
#X connect 19 0 16 0;
#X connect 21 0 23 0;
#X connect 23 0 28 0;
#X connect 24 0 26 0;
#X connect 26 0 30 0;
#X connect 27 0 21 0;
#X connect 29 0 24 0;
#X connect 31 0 33 0;
#X connect 33 0 38 0;
#X connect 34 0 36 0;
#X connect 36 0 40 0;
#X connect 37 0 31 0;
#X connect 39 0 34 0;
#X connect 43 0 44 0;
#X connect 44 0 67 0;
#X connect 45 0 47 0;
#X connect 47 0 69 0;
#X connect 48 0 50 0;
#X connect 50 0 71 0;
#X connect 51 0 53 0;
#X connect 53 0 73 0;
#X connect 54 0 56 0;
#X connect 56 0 75 0;
#X connect 57 0 59 0;
#X connect 59 0 77 0;
#X connect 60 0 62 0;
#X connect 62 0 80 0;
#X connect 63 0 65 0;
#X connect 65 0 81 0;
#X connect 66 0 43 0;
#X connect 68 0 45 0;
#X connect 70 0 48 0;
#X connect 72 0 51 0;
#X connect 74 0 54 0;
#X connect 76 0 57 0;
#X connect 78 0 60 0;
#X connect 79 0 63 0;
#X restore 32 103 pd load_sounds;
#X obj 32 343 vline~;
#X msg 32 312 \$1 \, \$2 \$3;
#X msg 32 231 0;
#X obj 32 262 pack f f f;
#X text 39 291 start \, end \, duration;
#X obj 171 231 / 44.1;
#X obj 32 427 *~;
#X obj 32 191 r kick-button-1;
#X obj 32 455 dac~;
#X obj 65 231 r end-kick-1;
#X obj 171 207 r end-kick-1;
#X obj 32 373 tabread4~ kick-1;
#X obj 30 651 vline~;
#X msg 30 620 \$1 \, \$2 \$3;
#X msg 30 539 0;
#X obj 30 570 pack f f f;
#X obj 169 539 / 44.1;
#X obj 30 735 *~;
#X obj 30 763 dac~;
#X obj 30 499 r kick-button-2;
#X obj 169 515 r end-kick-2;
#X obj 63 539 r end-kick-2;
#X obj 30 681 tabread4~ kick-2;
#X obj 48 707 r kick_vol;
#X obj 193 102 s kick_vol;
#X obj 193 30 loadbang;
#X obj 50 400 r kick_vol;
#X text 29 8 python input (int);
#X obj 293 338 vline~;
#X msg 293 307 \$1 \, \$2 \$3;
#X msg 293 226 0;
#X obj 293 257 pack f f f;
#X obj 432 226 / 44.1;
#X obj 293 422 *~;
#X obj 293 450 dac~;
#X obj 291 646 vline~;
#X msg 291 615 \$1 \, \$2 \$3;
#X msg 291 534 0;
#X obj 291 565 pack f f f;
#X obj 430 534 / 44.1;
#X obj 291 730 *~;
#X obj 291 758 dac~;
#X obj 293 186 r snare-button-1;
#X obj 326 226 r end-snare-1;
#X obj 432 202 r end-snare-1;
#X obj 293 368 tabread4~ snare-1;
#X obj 311 395 r snare_vol;
#X obj 291 494 r snare-button-2;
#X obj 430 510 r end-snare-2;
#X obj 324 534 r end-snare-2;
#X obj 291 676 tabread4~ snare-2;
#X obj 309 702 r snare_vol;
#X obj 561 338 vline~;
#X msg 561 307 \$1 \, \$2 \$3;
#X msg 561 226 0;
#X obj 561 257 pack f f f;
#X obj 700 226 / 44.1;
#X obj 561 422 *~;
#X obj 561 450 dac~;
#X obj 559 646 vline~;
#X msg 559 615 \$1 \, \$2 \$3;
#X msg 559 534 0;
#X obj 559 565 pack f f f;
#X obj 698 534 / 44.1;
#X obj 559 730 *~;
#X obj 559 758 dac~;
#X obj 561 186 r hh-button-1;
#X obj 700 202 r end-hh-1;
#X obj 594 226 r end-hh-1;
#X obj 561 368 tabread4~ hh-1;
#X obj 579 395 r hh_vol;
#X obj 559 494 r hh-button-2;
#X obj 698 510 r end-hh-2;
#X obj 592 534 r end-hh-2;
#X obj 559 676 tabread4~ hh-2;
#X obj 577 702 r hh_vol;
#X obj 810 334 vline~;
#X msg 810 303 \$1 \, \$2 \$3;
#X msg 810 222 0;
#X obj 810 253 pack f f f;
#X obj 949 222 / 44.1;
#X obj 810 418 *~;
#X obj 810 446 dac~;
#X obj 808 642 vline~;
#X msg 808 611 \$1 \, \$2 \$3;
#X msg 808 530 0;
#X obj 808 561 pack f f f;
#X obj 947 530 / 44.1;
#X obj 808 726 *~;
#X obj 808 754 dac~;
#X obj 810 182 r crash-button-1;
#X obj 949 198 r end-crash-1;
#X obj 843 222 r end-crash-1;
#X obj 810 364 tabread4~ crash-1;
#X obj 828 391 r crash_vol;
#X obj 947 506 r end-crash-2;
#X obj 808 490 r crash-button-2;
#X obj 808 672 tabread4~ crash-2;
#X obj 826 698 r crash_vol;
#X obj 297 100 s snare_vol;
#X obj 400 100 s hh_vol;
#X obj 492 99 s crash_vol;
#X obj 841 530 r end-crash-2;
#X text 106 160 Kick 1 and 2;
#X text 354 157 Snare 1 and 2;
#X text 609 157 High Hat 1 and 2;
#X text 861 154 Crash 1 and 2;
#X text 195 8 setup default values for volume (to be adjusted later)
;
#X obj 793 136 s~ drums;
#X obj 82 455 s~ kick-1;
#X obj 75 762 s~ kick-2;
#X obj 341 450 s~ snare-1;
#X obj 341 758 s~ snare-2;
#X obj 612 452 s~ hh-1;
#X obj 605 759 s~ hh-2;
#X obj 856 446 s~ crash-1;
#X obj 854 754 s~ crash-2;
#X obj 664 38 r~ kick-1;
#X obj 665 62 r~ kick-2;
#X obj 754 38 r~ snare-1;
#X obj 755 61 r~ snare-2;
#X obj 851 39 r~ hh-1;
#X obj 851 65 r~ hh-2;
#X obj 921 41 r~ crash-1;
#X obj 921 64 r~ crash-2;
#X text 762 11 output to loop input;
#X msg 492 66 0.7;
#X msg 400 67 0.7;
#X msg 297 68 0.7;
#X msg 193 68 0.8;
#X obj 27 990 vline~;
#X msg 27 959 \$1 \, \$2 \$3;
#X msg 27 878 0;
#X obj 27 909 pack f f f;
#X text 34 938 start \, end \, duration;
#X obj 166 878 / 44.1;
#X obj 27 1074 *~;
#X obj 27 1102 dac~;
#X obj 25 1298 vline~;
#X msg 25 1267 \$1 \, \$2 \$3;
#X msg 25 1186 0;
#X obj 25 1217 pack f f f;
#X obj 164 1186 / 44.1;
#X obj 25 1382 *~;
#X obj 25 1410 dac~;
#X obj 43 1354 r kick_vol;
#X obj 45 1047 r kick_vol;
#X obj 288 985 vline~;
#X msg 288 954 \$1 \, \$2 \$3;
#X msg 288 873 0;
#X obj 288 904 pack f f f;
#X obj 427 873 / 44.1;
#X obj 288 1069 *~;
#X obj 288 1097 dac~;
#X obj 286 1293 vline~;
#X msg 286 1262 \$1 \, \$2 \$3;
#X msg 286 1181 0;
#X obj 286 1212 pack f f f;
#X obj 425 1181 / 44.1;
#X obj 286 1377 *~;
#X obj 286 1405 dac~;
#X obj 306 1042 r snare_vol;
#X obj 304 1349 r snare_vol;
#X obj 556 985 vline~;
#X msg 556 954 \$1 \, \$2 \$3;
#X msg 556 873 0;
#X obj 556 904 pack f f f;
#X obj 695 873 / 44.1;
#X obj 556 1069 *~;
#X obj 556 1097 dac~;
#X obj 554 1293 vline~;
#X msg 554 1262 \$1 \, \$2 \$3;
#X msg 554 1181 0;
#X obj 554 1212 pack f f f;
#X obj 693 1181 / 44.1;
#X obj 554 1377 *~;
#X obj 554 1405 dac~;
#X obj 574 1042 r hh_vol;
#X obj 572 1349 r hh_vol;
#X obj 805 981 vline~;
#X msg 805 950 \$1 \, \$2 \$3;
#X msg 805 869 0;
#X obj 805 900 pack f f f;
#X obj 944 869 / 44.1;
#X obj 805 1065 *~;
#X obj 805 1093 dac~;
#X obj 803 1289 vline~;
#X msg 803 1258 \$1 \, \$2 \$3;
#X msg 803 1177 0;
#X obj 803 1208 pack f f f;
#X obj 942 1177 / 44.1;
#X obj 803 1373 *~;
#X obj 803 1401 dac~;
#X obj 823 1038 r crash_vol;
#X obj 821 1345 r crash_vol;
#X text 101 807 Kick 3 and 4;
#X text 349 804 Snare 3 and 4;
#X text 604 804 High Hat 3 and 4;
#X text 856 801 Crash 3 and 4;
#X obj 27 838 r kick-button-3;
#X obj 166 854 r end-kick-3;
#X obj 60 878 r end-kick-3;
#X obj 27 1020 tabread4~ kick-3;
#X obj 77 1102 s~ kick-3;
#X obj 25 1146 r kick-button-4;
#X obj 164 1162 r end-kick-4;
#X obj 58 1186 r end-kick-4;
#X obj 25 1328 tabread4~ kick-4;
#X obj 70 1409 s~ kick-4;
#X obj 288 833 r snare-button-3;
#X obj 427 849 r end-snare-3;
#X obj 321 873 r end-snare-3;
#X obj 288 1015 tabread4~ snare-3;
#X obj 336 1097 s~ snare-3;
#X obj 286 1141 r snare-button-4;
#X obj 425 1157 r end-snare-4;
#X obj 319 1181 r end-snare-4;
#X obj 286 1323 tabread4~ snare-4;
#X obj 336 1405 s~ snare-4;
#X obj 556 833 r hh-button-3;
#X obj 695 849 r end-hh-3;
#X obj 589 873 r end-hh-3;
#X obj 556 1015 tabread4~ hh-3;
#X obj 607 1099 s~ hh-3;
#X obj 554 1141 r hh-button-4;
#X obj 693 1157 r end-hh-4;
#X obj 587 1181 r end-hh-4;
#X obj 554 1323 tabread4~ hh-4;
#X obj 600 1406 s~ hh-4;
#X obj 805 829 r crash-button-3;
#X obj 944 845 r end-crash-3;
#X obj 838 869 r end-crash-3;
#X obj 805 1011 tabread4~ crash-3;
#X obj 851 1093 s~ crash-3;
#X obj 803 1137 r crash-button-4;
#X obj 942 1153 r end-crash-4;
#X obj 836 1177 r end-crash-4;
#X obj 803 1319 tabread4~ crash-4;
#X obj 849 1401 s~ crash-4;
#X obj 666 87 r~ kick-3;
#X obj 667 111 r~ kick-4;
#X obj 756 87 r~ snare-3;
#X obj 757 110 r~ snare-4;
#X obj 853 88 r~ hh-3;
#X obj 853 114 r~ hh-4;
#X obj 923 90 r~ crash-3;
#X obj 923 112 r~ crash-4;
#X connect 0 0 1 0;
#X connect 2 0 13 0;
#X connect 3 0 2 0;
#X connect 4 0 5 0;
#X connect 5 0 3 0;
#X connect 7 0 5 2;
#X connect 8 0 10 0;
#X connect 8 0 10 1;
#X connect 8 0 111 0;
#X connect 9 0 4 0;
#X connect 11 0 5 1;
#X connect 12 0 7 0;
#X connect 13 0 8 0;
#X connect 14 0 24 0;
#X connect 15 0 14 0;
#X connect 16 0 17 0;
#X connect 17 0 15 0;
#X connect 18 0 17 2;
#X connect 19 0 20 0;
#X connect 19 0 20 1;
#X connect 19 0 112 0;
#X connect 21 0 16 0;
#X connect 22 0 18 0;
#X connect 23 0 17 1;
#X connect 24 0 19 0;
#X connect 25 0 19 1;
#X connect 27 0 128 0;
#X connect 27 0 129 0;
#X connect 27 0 130 0;
#X connect 27 0 131 0;
#X connect 28 0 8 1;
#X connect 30 0 47 0;
#X connect 31 0 30 0;
#X connect 32 0 33 0;
#X connect 33 0 31 0;
#X connect 34 0 33 2;
#X connect 35 0 36 0;
#X connect 35 0 36 1;
#X connect 35 0 113 0;
#X connect 37 0 52 0;
#X connect 38 0 37 0;
#X connect 39 0 40 0;
#X connect 40 0 38 0;
#X connect 41 0 40 2;
#X connect 42 0 43 0;
#X connect 42 0 43 1;
#X connect 42 0 114 0;
#X connect 44 0 32 0;
#X connect 45 0 33 1;
#X connect 46 0 34 0;
#X connect 47 0 35 0;
#X connect 48 0 35 1;
#X connect 49 0 39 0;
#X connect 50 0 41 0;
#X connect 51 0 40 1;
#X connect 52 0 42 0;
#X connect 53 0 42 1;
#X connect 54 0 71 0;
#X connect 55 0 54 0;
#X connect 56 0 57 0;
#X connect 57 0 55 0;
#X connect 58 0 57 2;
#X connect 59 0 60 0;
#X connect 59 0 60 1;
#X connect 59 0 115 0;
#X connect 61 0 76 0;
#X connect 62 0 61 0;
#X connect 63 0 64 0;
#X connect 64 0 62 0;
#X connect 65 0 64 2;
#X connect 66 0 67 0;
#X connect 66 0 67 1;
#X connect 66 0 116 0;
#X connect 68 0 56 0;
#X connect 69 0 58 0;
#X connect 70 0 57 1;
#X connect 71 0 59 0;
#X connect 72 0 59 1;
#X connect 73 0 63 0;
#X connect 74 0 65 0;
#X connect 75 0 64 1;
#X connect 76 0 66 0;
#X connect 77 0 66 1;
#X connect 78 0 95 0;
#X connect 79 0 78 0;
#X connect 80 0 81 0;
#X connect 81 0 79 0;
#X connect 82 0 81 2;
#X connect 83 0 84 0;
#X connect 83 0 84 1;
#X connect 83 0 117 0;
#X connect 85 0 99 0;
#X connect 86 0 85 0;
#X connect 87 0 88 0;
#X connect 88 0 86 0;
#X connect 89 0 88 2;
#X connect 90 0 91 0;
#X connect 90 0 91 1;
#X connect 90 0 118 0;
#X connect 92 0 80 0;
#X connect 93 0 82 0;
#X connect 94 0 81 1;
#X connect 95 0 83 0;
#X connect 96 0 83 1;
#X connect 97 0 89 0;
#X connect 98 0 87 0;
#X connect 99 0 90 0;
#X connect 100 0 90 1;
#X connect 104 0 88 1;
#X connect 119 0 110 0;
#X connect 120 0 110 0;
#X connect 121 0 110 0;
#X connect 122 0 110 0;
#X connect 123 0 110 0;
#X connect 124 0 110 0;
#X connect 125 0 110 0;
#X connect 126 0 110 0;
#X connect 128 0 103 0;
#X connect 129 0 102 0;
#X connect 130 0 101 0;
#X connect 131 0 26 0;
#X connect 132 0 204 0;
#X connect 133 0 132 0;
#X connect 134 0 135 0;
#X connect 135 0 133 0;
#X connect 137 0 135 2;
#X connect 138 0 139 0;
#X connect 138 0 139 1;
#X connect 138 0 205 0;
#X connect 140 0 209 0;
#X connect 141 0 140 0;
#X connect 142 0 143 0;
#X connect 143 0 141 0;
#X connect 144 0 143 2;
#X connect 145 0 146 0;
#X connect 145 0 146 1;
#X connect 145 0 210 0;
#X connect 147 0 145 1;
#X connect 148 0 138 1;
#X connect 149 0 214 0;
#X connect 150 0 149 0;
#X connect 151 0 152 0;
#X connect 152 0 150 0;
#X connect 153 0 152 2;
#X connect 154 0 155 0;
#X connect 154 0 155 1;
#X connect 154 0 215 0;
#X connect 156 0 219 0;
#X connect 157 0 156 0;
#X connect 158 0 159 0;
#X connect 159 0 157 0;
#X connect 160 0 159 2;
#X connect 161 0 162 0;
#X connect 161 0 162 1;
#X connect 161 0 220 0;
#X connect 163 0 154 1;
#X connect 164 0 161 1;
#X connect 165 0 224 0;
#X connect 166 0 165 0;
#X connect 167 0 168 0;
#X connect 168 0 166 0;
#X connect 169 0 168 2;
#X connect 170 0 171 0;
#X connect 170 0 171 1;
#X connect 170 0 225 0;
#X connect 172 0 229 0;
#X connect 173 0 172 0;
#X connect 174 0 175 0;
#X connect 175 0 173 0;
#X connect 176 0 175 2;
#X connect 177 0 178 0;
#X connect 177 0 178 1;
#X connect 177 0 230 0;
#X connect 179 0 170 1;
#X connect 180 0 177 1;
#X connect 181 0 234 0;
#X connect 182 0 181 0;
#X connect 183 0 184 0;
#X connect 184 0 182 0;
#X connect 185 0 184 2;
#X connect 186 0 187 0;
#X connect 186 0 187 1;
#X connect 186 0 235 0;
#X connect 188 0 239 0;
#X connect 189 0 188 0;
#X connect 190 0 191 0;
#X connect 191 0 189 0;
#X connect 192 0 191 2;
#X connect 193 0 194 0;
#X connect 193 0 194 1;
#X connect 193 0 240 0;
#X connect 195 0 186 1;
#X connect 196 0 193 1;
#X connect 201 0 134 0;
#X connect 202 0 137 0;
#X connect 203 0 135 1;
#X connect 204 0 138 0;
#X connect 206 0 142 0;
#X connect 207 0 144 0;
#X connect 208 0 143 1;
#X connect 209 0 145 0;
#X connect 211 0 151 0;
#X connect 212 0 153 0;
#X connect 213 0 152 1;
#X connect 214 0 154 0;
#X connect 216 0 158 0;
#X connect 217 0 160 0;
#X connect 218 0 159 1;
#X connect 219 0 161 0;
#X connect 221 0 167 0;
#X connect 222 0 169 0;
#X connect 223 0 168 1;
#X connect 224 0 170 0;
#X connect 226 0 174 0;
#X connect 227 0 176 0;
#X connect 228 0 175 1;
#X connect 229 0 177 0;
#X connect 231 0 183 0;
#X connect 232 0 185 0;
#X connect 233 0 184 1;
#X connect 234 0 186 0;
#X connect 236 0 190 0;
#X connect 237 0 192 0;
#X connect 238 0 191 1;
#X connect 239 0 193 0;
#X restore 382 255 pd drumbox;
#X text 461 255 drumbox logic;
#X msg 14 35 \; pd dsp \$1;
#X obj 14 9 tgl 15 0 empty dsp_status empty 17 7 0 10 -262144 -1 -1
1 1;
#X text 459 85 python input router and init values;
#X text 38 8 toggle sound;
#X obj 76 133 loop 1;
#X obj 150 133 loop 2;
#X obj 219 134 loop 3;
#X obj 290 134 loop 4;
#X obj 76 212 loop 5;
#X obj 150 212 loop 6;
#X obj 219 213 loop 7;
#X obj 290 213 loop 8;
#N canvas 622 297 725 480 init_loop 0;
#X obj 96 205 r lp-trig-1;
#X obj 86 182 r lp-trig-2;
#X obj 77 160 r lp-trig-3;
#X obj 64 137 r lp-trig-4;
#X obj 50 114 r lp-trig-5;
#X obj 36 93 r lp-trig-6;
#X obj 21 71 r lp-trig-7;
#X obj 6 50 r lp-trig-8;
#X obj 96 260 bng 15 250 50 0 empty empty empty 17 7 0 10 -262144 -1
-1;
#X obj 96 320 f;
#X obj 96 401 s press-one;
#X obj 192 401 s press-two;
#X obj 135 319 + 1;
#X obj 367 125 r press-one;
#X obj 367 178 timer;
#X obj 473 125 r press-two;
#X obj 367 236 s loop-time;
#X text 435 101 Timer;
#X obj 473 176 s play;
#X msg 135 289 0;
#X text 181 32 This is for the initial loop tempo. The function checks
the first and second press of the button and sends play if the second
push has been done.;
#X obj 235 263 loadbang;
#X text 9 421 first press on the button;
#X text 192 421 second press on the button;
#X obj 135 263 r clear-loops;
#X obj 96 360 sel 0 1 2;
#X obj 287 402 s press-three;
#X connect 0 0 8 0;
#X connect 1 0 8 0;
#X connect 2 0 8 0;
#X connect 3 0 8 0;
#X connect 4 0 8 0;
#X connect 5 0 8 0;
#X connect 6 0 8 0;
#X connect 7 0 8 0;
#X connect 8 0 9 0;
#X connect 9 0 12 0;
#X connect 9 0 25 0;
#X connect 12 0 9 1;
#X connect 13 0 14 0;
#X connect 14 0 16 0;
#X connect 15 0 14 1;
#X connect 15 0 18 0;
#X connect 19 0 9 1;
#X connect 21 0 19 0;
#X connect 24 0 19 0;
#X connect 25 0 10 0;
#X connect 25 1 11 0;
#X connect 25 2 26 0;
#X restore 382 117 pd init_loop;
#X obj 160 8 bng 15 250 50 0 empty clear-all empty 17 7 0 10 -262144
-1 -1;
#N canvas 23 487 450 300 clear-loops 0;
#X obj 25 84 s clear-1;
#X obj 25 111 s clear-2;
#X obj 116 84 s clear-3;
#X obj 116 111 s clear-4;
#X obj 201 84 s clear-5;
#X obj 201 111 s clear-6;
#X obj 280 84 s clear-7;
#X obj 280 111 s clear-8;
#X obj 101 42 inlet;
#X obj 101 158 s clear-loops;
#X connect 8 0 0 0;
#X connect 8 0 1 0;
#X connect 8 0 2 0;
#X connect 8 0 3 0;
#X connect 8 0 4 0;
#X connect 8 0 5 0;
#X connect 8 0 6 0;
#X connect 8 0 7 0;
#X connect 8 0 9 0;
#X restore 160 30 pd clear-loops;
#N canvas 21 166 400 413 loop_player 0;
#N canvas 89 221 484 474 combine_loops 0;
#X obj 19 43 loop_output 1;
#X obj 21 69 loop_output 2;
#X obj 21 94 loop_output 3;
#X obj 22 121 loop_output 4;
#X obj 22 147 loop_output 5;
#X obj 24 171 loop_output 6;
#X obj 26 197 loop_output 7;
#X obj 27 220 loop_output 8;
#X obj 135 297 *~;
#X obj 135 439 dac~;
#X text 18 296 main loop sound;
#X text 16 13 volume control and master volume setting;
#X obj 209 110 *~;
#X text 17 27 LEFT: Main output of loop \, RIGHT: Fade out part of
the loop;
#X obj 209 141 dac~;
#X obj 166 410 *~;
#X text 173 304 reverb;
#X obj 211 410 *~;
#X obj 229 361 loadbang;
#X obj 166 326 rev2~ 100 50 3000 50;
#X msg 229 386 0.2;
#X text 244 111 if loop position is 0: fade-out;
#X msg 153 273 1;
#X obj 153 250 loadbang;
#X obj 227 64 loadbang;
#X msg 227 87 1;
#X connect 0 0 8 0;
#X connect 0 1 12 0;
#X connect 1 0 8 0;
#X connect 1 1 12 0;
#X connect 2 0 8 0;
#X connect 2 1 12 0;
#X connect 3 0 8 0;
#X connect 3 1 12 0;
#X connect 4 0 8 0;
#X connect 4 1 12 0;
#X connect 5 0 8 0;
#X connect 5 1 12 0;
#X connect 6 0 8 0;
#X connect 6 1 12 0;
#X connect 7 0 8 0;
#X connect 7 1 12 0;
#X connect 8 0 9 0;
#X connect 8 0 9 1;
#X connect 8 0 19 0;
#X connect 12 0 14 0;
#X connect 12 0 14 1;
#X connect 15 0 9 0;
#X connect 17 0 9 1;
#X connect 18 0 20 0;
#X connect 19 0 15 0;
#X connect 19 1 17 0;
#X connect 20 0 15 1;
#X connect 20 0 17 1;
#X connect 22 0 8 1;
#X connect 23 0 22 0;
#X connect 24 0 25 0;
#X connect 25 0 12 1;
#X restore 19 78 pd combine_loops;
#X text 20 57 Play loops:;
#X obj 225 38 r loop-time;
#X obj 225 86 s sample-rate;
#X obj 15 130 r play;
#X obj 225 61 * 44.1;
#X obj 65 226 metro;
#X msg 15 155 1;
#X msg 65 155 0;
#X obj 65 251 f;
#X obj 105 251 + 1;
#X obj 65 310 mod;
#X obj 97 202 /;
#X text 63 107 metronome;
#X text 223 17 loop time to samples;
#X obj 65 130 r clear-loops;
#X obj 65 337 hradio 15 1 0 8 empty empty empty 0 -8 0 10 -262144 -1
-1 1;
#X msg 97 310 number \$1;
#X obj 65 363 s counter;
#X obj 83 280 r signature;
#X obj 115 178 r signature;
#X obj 97 155 r loop-time;
#X obj 225 164 r loop-time;
#X text 223 126 transform loop time;
#X text 223 142 to decent timed bpm;
#X obj 225 192 / 500;
#X obj 225 240 + 0.5;
#X obj 225 264 int;
#X text 268 192 each 1/2 second;
#X obj 225 365 s signature;
#X obj 225 316 min 16;
#X obj 225 217 / 8;
#X text 256 217 devisable by 8;
#X obj 225 290 * 8;
#X obj 225 339 max 4;
#X connect 2 0 5 0;
#X connect 4 0 7 0;
#X connect 5 0 3 0;
#X connect 6 0 9 0;
#X connect 7 0 6 0;
#X connect 8 0 6 0;
#X connect 8 0 9 1;
#X connect 9 0 10 0;
#X connect 9 0 11 0;
#X connect 10 0 9 1;
#X connect 11 0 16 0;
#X connect 12 0 6 1;
#X connect 15 0 8 0;
#X connect 16 0 18 0;
#X connect 17 0 16 0;
#X connect 19 0 11 1;
#X connect 19 0 17 0;
#X connect 20 0 12 1;
#X connect 21 0 12 0;
#X connect 22 0 25 0;
#X connect 25 0 31 0;
#X connect 26 0 27 0;
#X connect 27 0 33 0;
#X connect 30 0 34 0;
#X connect 31 0 26 0;
#X connect 33 0 30 0;
#X connect 34 0 29 0;
#X restore 382 146 pd loop_player;
#X obj 127 103 tgl 15 0 empty mute-1 empty 17 7 0 10 -4032 -1 -1 0
1;
#X obj 198 103 tgl 15 0 empty mute-2 empty 17 7 0 10 -4032 -1 -1 0
1;
#X obj 269 103 tgl 15 0 empty mute-3 empty 17 7 0 10 -4032 -1 -1 0
1;
#X obj 341 105 tgl 15 0 empty mute-4 empty 17 7 0 10 -4032 -1 -1 0
1;
#X obj 126 183 tgl 15 0 empty mute-5 empty 17 7 0 10 -4032 -1 -1 0
1;
#X obj 199 184 tgl 15 0 empty mute-6 empty 17 7 0 10 -4032 -1 -1 0
1;
#X obj 268 184 tgl 15 0 empty mute-7 empty 17 7 0 10 -4032 -1 -1 0
1;
#X obj 341 184 tgl 15 0 empty mute-8 empty 17 7 0 10 -4032 -1 -1 0
1;
#X obj 127 124 tgl 15 0 empty rec-loop-1 empty 17 7 0 10 -4034 -1 -1
0 1;
#X obj 199 125 tgl 15 0 empty rec-loop-2 empty 17 7 0 10 -4034 -1 -1
0 1;
#X obj 269 125 tgl 15 0 empty rec-loop-3 empty 17 7 0 10 -4034 -1 -1
0 1;
#X obj 341 126 tgl 15 0 empty rec-loop-4 empty 17 7 0 10 -4034 -1 -1
0 1;
#X obj 126 204 tgl 15 0 empty rec-loop-5 empty 17 7 0 10 -4034 -1 -1
0 1;
#X obj 199 204 tgl 15 0 empty rec-loop-6 empty 17 7 0 10 -4034 -1 -1
0 1;
#X obj 269 204 tgl 15 0 empty rec-loop-7 empty 17 7 0 10 -4034 -1 -1
0 1;
#X obj 341 205 tgl 15 0 empty rec-loop-8 empty 17 7 0 10 -4034 -1 -1
0 1;
#N canvas 250 108 962 586 send_msg 0;
#X obj 225 345 r counter;
#X obj 24 51 loadbang;
#X obj 24 390 netsend;
#X floatatom 24 413 5 0 0 0 - - -;
#X msg 24 84 connect 127.0.0.1 4000;
#X msg 42 142 disconnect;
#X obj 407 228 r start-rec;
#X obj 409 255 t f;
#X obj 412 359 r stop-rec;
#X obj 718 241 r wait-rec;
#X obj 718 264 t f;
#X obj 97 52 r connect;
#X obj 42 114 r disconnect;
#X obj 722 363 r mute-rec;
#X obj 224 230 r clear-rec;
#X obj 224 253 t f;
#X text 15 5 send status messages to python and initiate the connection
to the socket;
#X text 721 347 1: mute status 2: loop nr;
#X obj 300 346 r signature;
#X obj 225 371 pack f f;
#X obj 580 241 r start-overdub;
#X obj 580 264 t f;
#X obj 722 413 s msg;
#X obj 42 361 r msg;
#X obj 224 300 s msg;
#X obj 225 422 s msg;
#X obj 409 302 s msg;
#X obj 412 406 s msg;
#X obj 718 310 s msg;
#X obj 580 310 s msg;
#X text 576 226 ----------;
#X text 223 332 ----------;
#X text 716 227 ----------;
#X text 578 335 ----------;
#X obj 579 374 t f;
#X obj 579 420 s msg;
#X obj 579 351 r stop-overdub;
#X text 224 36 Message protocol. Byte are separeted from | First byte:
-0: Track state \, -1: Metronome counter;
#X text 233 168 If metronome message (first byte = 1) Second byte:
actual count Third byte: max;
#X msg 224 277 send 0|0|\$1|;
#X msg 580 287 send 0|3|\$1|;
#X msg 579 397 send 0|4|\$1|;
#X msg 718 287 send 0|5|\$1|;
#X msg 409 279 send 0|1|\$1|;
#X msg 225 399 send 1|\$1|\$2|;
#X msg 722 390 send 0|6|\$2|;
#X msg 412 382 send 0|2|\$2|;
#X text 425 339 CHANGED ----------;
#X text 231 76 If track state message (first byte = 0) Second byte:
0:CLEAR_REC 1:START_REC 2:STOP_REC 3:START_OVERDUB 4:STOP_OVERDUB 5:WAIT_REC
6:MUTE_REC Third byte: Track number;
#X connect 0 0 19 0;
#X connect 1 0 4 0;
#X connect 2 0 3 0;
#X connect 4 0 2 0;
#X connect 5 0 2 0;
#X connect 6 0 7 0;
#X connect 7 0 43 0;
#X connect 8 0 46 0;
#X connect 9 0 10 0;
#X connect 10 0 42 0;
#X connect 11 0 4 0;
#X connect 12 0 5 0;
#X connect 13 0 45 0;
#X connect 14 0 15 0;
#X connect 15 0 39 0;
#X connect 18 0 19 1;
#X connect 19 0 44 0;
#X connect 20 0 21 0;
#X connect 21 0 40 0;
#X connect 23 0 2 0;
#X connect 34 0 41 0;
#X connect 36 0 34 0;
#X connect 39 0 24 0;
#X connect 40 0 29 0;
#X connect 41 0 35 0;
#X connect 42 0 28 0;
#X connect 43 0 26 0;
#X connect 44 0 25 0;
#X connect 45 0 22 0;
#X connect 46 0 27 0;
#X restore 381 174 pd send_msg;
#X text 475 116 initial loop settings;
#X text 492 145 playing loops and metronome;
#X text 470 174 sending messages to Python;
#N canvas 507 97 450 300 audio_input 0;
#X obj 79 196 s~ audio;
#X obj 28 47 adc~;
#X obj 28 134 *~;
#X obj 46 85 loadbang;
#X text 23 18 The audio input from the soundcard;
#X text 133 148 volume;
#X obj 28 172 dac~;
#X obj 79 171 *~;
#X msg 97 148 1;
#X obj 117 85 r audio_input_toggle;
#X obj 46 112 tgl 15 0 empty empty empty 17 7 0 10 -262144 -1 -1 1
1;
#X connect 1 0 2 0;
#X connect 2 0 6 0;
#X connect 2 0 6 1;
#X connect 2 0 7 0;
#X connect 3 0 8 0;
#X connect 3 0 10 0;
#X connect 7 0 0 0;
#X connect 8 0 7 1;
#X connect 9 0 10 0;
#X connect 10 0 2 1;
#X restore 381 282 pd audio_input;
#X text 494 282 audio input (soundcard);
#X obj 214 463 bng 45 250 50 0 kick-button-3 button-15 kick_3 0 55
0 10 -4034 -1 -1;
#X obj 216 391 bng 45 250 50 0 snare-button-3 button-11 snare_3 0 55
0 10 -258113 -1 -1;
#X obj 218 251 bng 45 250 50 0 hh-button-3 button-3 Highhat_3 0 55
0 9 -4160 -1 -1;
#X obj 218 320 bng 45 250 50 0 crash-button-3 button-7 Crash_3 0 55
0 10 -4032 -1 -1;
#X obj 282 462 bng 45 250 50 0 kick-button-4 button-16 kick_4 0 55
0 10 -4034 -1 -1;
#X obj 284 391 bng 45 250 50 0 snare-button-4 button-12 snare_4 0 55
0 10 -258113 -1 -1;
#X obj 289 252 bng 45 250 50 0 hh-button-4 button-4 Highhat_4 0 55
0 9 -4160 -1 -1;
#X obj 290 318 bng 45 250 50 0 crash-button-4 button-8 Crash_4 0 55
0 10 -4032 -1 -1;
#X connect 28 0 27 0;
#X connect 40 0 41 0;
