#N canvas 275 111 829 596 12;
#X obj 25 93 bng 45 250 50 0 lp-trig-1 loop-button-1 empty 17 7 0 10
-262144 -1 -1;
#X obj 134 94 bng 45 250 50 0 lp-trig-2 loop-button-2 empty 17 7 0
10 -262144 -1 -1;
#X obj 232 91 bng 45 250 50 0 lp-trig-3 loop-button-3 empty 17 7 0
10 -262144 -1 -1;
#X obj 335 88 bng 45 250 50 0 lp-trig-4 loop-button-4 empty 17 7 0
10 -262144 -1 -1;
#X obj 25 202 bng 45 250 50 0 lp-trig-5 loop-button-5 empty 17 7 0
10 -262144 -1 -1;
#X obj 131 202 bng 45 250 50 0 lp-trig-6 loop-button-6 empty 17 7 0
10 -262144 -1 -1;
#X obj 232 203 bng 45 250 50 0 lp-trig-7 loop-button-7 empty 17 7 0
10 -262144 -1 -1;
#X obj 334 201 bng 45 250 50 0 lp-trig-8 loop-button-8 empty 17 7 0
10 -262144 -1 -1;
#X obj 77 506 bng 45 250 50 0 button-s41 button-13 empty 0 55 0 10
-4034 -1 -1;
#X obj 79 434 bng 45 250 50 0 button-s31 button-9 empty 0 55 0 10 -258113
-1 -1;
#X obj 82 293 bng 45 250 50 0 button-s11 button-1 empty 0 55 0 9 -4160
-1 -1;
#X obj 81 363 bng 45 250 50 0 button-s21 button-5 empty 0 55 0 10 -4032
-1 -1;
#X obj 147 507 bng 45 250 50 0 button-s42 button-14 empty 0 55 0 10
-4034 -1 -1;
#X obj 147 435 bng 45 250 50 0 button-s32 button-10 empty 0 55 0 10
-258113 -1 -1;
#X obj 153 294 bng 45 250 50 0 button-s12 button-2 empty 0 55 0 9 -4160
-1 -1;
#X obj 148 362 bng 45 250 50 0 button-s22 button-6 empty 0 55 0 10
-4032 -1 -1;
#X obj 75 93 bng 15 250 50 0 clear-1 empty empty 17 7 0 10 -258113
-1 -1;
#X obj 182 94 bng 15 250 50 0 clear-2 empty empty 17 7 0 10 -258113
-1 -1;
#X obj 282 92 bng 15 250 50 0 clear-3 empty empty 17 7 0 10 -258113
-1 -1;
#X obj 386 89 bng 15 250 50 0 clear-4 empty empty 17 7 0 10 -258113
-1 -1;
#X obj 75 202 bng 15 250 50 0 clear-5 empty empty 17 7 0 10 -258113
-1 -1;
#X obj 179 202 bng 15 250 50 0 clear-6 empty empty 17 7 0 10 -258113
-1 -1;
#X obj 281 203 bng 15 250 50 0 clear-7 empty empty 17 7 0 10 -258113
-1 -1;
#X obj 385 206 bng 15 250 50 0 clear-8 empty empty 17 7 0 10 -258113
-1 -1;
#N canvas 0 97 1280 623 router 1;
#X obj 174 20 netreceive 3000;
#X obj 20 248 s selected_kit;
#X obj 20 187 loadbang;
#X text 167 3 Open socket for Python input;
#X obj 17 116 s dsp_status;
#X obj 17 60 loadbang;
#X msg 17 87 1;
#X text 14 37 init value DSP: on;
#X obj 166 165 select 1 2 3 4 5 6 7 8 9 10 11 12 13 14 15 16;
#X obj 185 530 s button-2;
#X obj 205 506 s button-3;
#X obj 224 483 s button-4;
#X obj 244 458 s button-5;
#X obj 263 435 s button-6;
#X obj 283 411 s button-7;
#X obj 302 388 s button-8;
#X obj 322 364 s button-9;
#X obj 341 341 s button-10;
#X obj 361 317 s button-11;
#X obj 380 294 s button-12;
#X obj 400 270 s button-13;
#X obj 419 247 s button-14;
#X obj 439 223 s button-15;
#X obj 458 201 s button-16;
#X obj 573 169 select 1 2 3 4 5 6 7 8;
#X obj 573 386 s clear-1;
#X obj 591 362 s clear-2;
#X obj 610 337 s clear-3;
#X obj 629 312 s clear-4;
#X obj 648 287 s clear-5;
#X obj 667 262 s clear-6;
#X obj 686 238 s clear-7;
#X obj 705 215 s clear-8;
#X text 594 149 clear loop: 1-8;
#X obj 573 194 bng 15 250 50 0 empty empty empty 17 7 0 10 -262144
-1 -1;
#X obj 591 194 bng 15 250 50 0 empty empty empty 17 7 0 10 -262144
-1 -1;
#X obj 610 194 bng 15 250 50 0 empty empty empty 17 7 0 10 -262144
-1 -1;
#X obj 629 194 bng 15 250 50 0 empty empty empty 17 7 0 10 -262144
-1 -1;
#X obj 648 194 bng 15 250 50 0 empty empty empty 17 7 0 10 -262144
-1 -1;
#X obj 667 194 bng 15 250 50 0 empty empty empty 17 7 0 10 -262144
-1 -1;
#X obj 686 194 bng 15 250 50 0 empty empty empty 17 7 0 10 -262144
-1 -1;
#X obj 705 194 bng 15 250 50 0 empty empty empty 17 7 0 10 -262144
-1 -1;
#X obj 670 91 s clear-all;
#X text 645 65 clear all loops;
#X text 16 19 channel 0;
#X text 16 144 channel 1;
#X text 599 135 channel 3;
#X text 689 46 channel 4;
#X obj 782 158 select 1 2 3 4 5 6 7 8;
#X obj 800 183 bng 15 250 50 0 empty empty empty 17 7 0 10 -262144
-1 -1;
#X obj 819 183 bng 15 250 50 0 empty empty empty 17 7 0 10 -262144
-1 -1;
#X obj 838 183 bng 15 250 50 0 empty empty empty 17 7 0 10 -262144
-1 -1;
#X obj 857 183 bng 15 250 50 0 empty empty empty 17 7 0 10 -262144
-1 -1;
#X obj 876 183 bng 15 250 50 0 empty empty empty 17 7 0 10 -262144
-1 -1;
#X obj 895 183 bng 15 250 50 0 empty empty empty 17 7 0 10 -262144
-1 -1;
#X obj 914 183 bng 15 250 50 0 empty empty empty 17 7 0 10 -262144
-1 -1;
#X text 808 124 channel 5;
#X text 803 138 overdub loop: 1-8;
#X obj 782 375 s overdub-1;
#X obj 800 351 s overdub-2;
#X obj 819 326 s overdub-3;
#X obj 838 301 s overdub-4;
#X obj 857 276 s overdub-5;
#X obj 876 251 s overdub-6;
#X obj 895 227 s overdub-7;
#X obj 914 204 s overdub-8;
#X obj 782 183 bng 15 250 50 0 empty empty empty 17 7 0 10 -262144
-1 -1;
#X obj 817 26 s audio_input_toggle;
#X text 834 4 channel 6;
#X text 816 48 set audio input vol to 1/0;
#X text 163 137 channel 2;
#X text 165 150 Drumpad buttons;
#X obj 397 438 select 1 2 3 4 5 6 7 8;
#X text 410 403 channel 7;
#X text 405 417 loop button 1-8;
#X obj 166 553 s button-1;
#X obj 398 621 s loop-button-1;
#X obj 415 596 s loop-button-2;
#X obj 435 572 s loop-button-3;
#X obj 453 551 s loop-button-4;
#X obj 472 529 s loop-button-5;
#X obj 492 508 s loop-button-6;
#X obj 510 486 s loop-button-7;
#X obj 529 464 s loop-button-8;
#X text 713 406 channel 8;
#X text 708 420 loop track volume + master volume (9);
#X obj 700 441 select 1 2 3 4 5 6 7 8 9;
#X obj 177 93 route 0 1 2 3 4 5 6 7 8;
#X obj 700 655 s lslide-vol-1;
#X obj 276 46 unpack f f f;
#X obj 400 66 value vol;
#X obj 698 624 value vol;
#X obj 709 569 value vol;
#X obj 723 516 value vol;
#X obj 709 600 s lslide-vol-2;
#X obj 723 547 s lslide-vol-3;
#X obj 827 620 value vol;
#X obj 838 565 value vol;
#X obj 852 512 value vol;
#X obj 981 615 value vol;
#X obj 992 560 value vol;
#X obj 1006 507 value vol;
#X obj 829 651 s lslide-vol-4;
#X obj 838 596 s lslide-vol-5;
#X obj 852 543 s lslide-vol-6;
#X obj 983 646 s lslide-vol-7;
#X obj 992 591 s lslide-vol-8;
#X obj 1006 538 s lslide-vol-master;
#X obj 109 204 bng 15 250 50 0 empty empty empty 17 7 0 10 -262144
-1 -1;
#X text 16 160 init value kit: 0;
#X msg 20 216 0;
#X connect 0 0 87 0;
#X connect 0 0 89 0;
#X connect 2 0 110 0;
#X connect 5 0 6 0;
#X connect 6 0 4 0;
#X connect 8 0 75 0;
#X connect 8 1 9 0;
#X connect 8 2 10 0;
#X connect 8 3 11 0;
#X connect 8 4 12 0;
#X connect 8 5 13 0;
#X connect 8 6 14 0;
#X connect 8 7 15 0;
#X connect 8 8 16 0;
#X connect 8 9 17 0;
#X connect 8 10 18 0;
#X connect 8 11 19 0;
#X connect 8 12 20 0;
#X connect 8 13 21 0;
#X connect 8 14 22 0;
#X connect 8 15 23 0;
#X connect 24 0 34 0;
#X connect 24 1 35 0;
#X connect 24 2 36 0;
#X connect 24 3 37 0;
#X connect 24 4 38 0;
#X connect 24 5 39 0;
#X connect 24 6 40 0;
#X connect 24 7 41 0;
#X connect 34 0 25 0;
#X connect 35 0 26 0;
#X connect 36 0 27 0;
#X connect 37 0 28 0;
#X connect 38 0 29 0;
#X connect 39 0 30 0;
#X connect 40 0 31 0;
#X connect 41 0 32 0;
#X connect 48 0 66 0;
#X connect 48 1 49 0;
#X connect 48 2 50 0;
#X connect 48 3 51 0;
#X connect 48 4 52 0;
#X connect 48 5 53 0;
#X connect 48 6 54 0;
#X connect 48 7 55 0;
#X connect 49 0 59 0;
#X connect 50 0 60 0;
#X connect 51 0 61 0;
#X connect 52 0 62 0;
#X connect 53 0 63 0;
#X connect 54 0 64 0;
#X connect 55 0 65 0;
#X connect 66 0 58 0;
#X connect 72 0 76 0;
#X connect 72 1 77 0;
#X connect 72 2 78 0;
#X connect 72 3 79 0;
#X connect 72 4 80 0;
#X connect 72 5 81 0;
#X connect 72 6 82 0;
#X connect 72 7 83 0;
#X connect 86 0 91 0;
#X connect 86 1 92 0;
#X connect 86 2 93 0;
#X connect 86 3 96 0;
#X connect 86 4 97 0;
#X connect 86 5 98 0;
#X connect 86 6 99 0;
#X connect 86 7 100 0;
#X connect 86 8 101 0;
#X connect 87 0 4 0;
#X connect 87 1 1 0;
#X connect 87 2 8 0;
#X connect 87 3 24 0;
#X connect 87 4 42 0;
#X connect 87 5 48 0;
#X connect 87 6 67 0;
#X connect 87 7 72 0;
#X connect 87 8 86 0;
#X connect 89 2 90 0;
#X connect 91 0 88 0;
#X connect 92 0 94 0;
#X connect 93 0 95 0;
#X connect 96 0 102 0;
#X connect 97 0 103 0;
#X connect 98 0 104 0;
#X connect 99 0 105 0;
#X connect 100 0 106 0;
#X connect 101 0 107 0;
#X connect 108 0 110 0;
#X connect 110 0 1 0;
#X restore 450 11 pd router;
#N canvas 0 97 1280 623 drumbox 0;
#X obj 32 29 r selected_kit;
#N canvas 0 97 1280 623 load_sounds 0;
#X obj 18 10 inlet;
#N canvas 0 97 450 278 (subpatch) 0;
#X array sound_11 27563 float 2;
#X coords 0 0.1 27563 -0.1 100 50 1 0 0;
#X restore 60 423 graph;
#X obj 58 310 soundfiler;
#X floatatom 58 343 10 0 0 0 - - -;
#X msg 58 275 read -resize \$1/11.wav sound_11;
#X obj 58 376 s end_sound_11;
#X obj 62 158 s changeSound;
#X obj 55 243 r changeSound;
#X msg 14 121 symbol sounds/crash;
#X msg 33 83 symbol sounds/hh;
#X msg 179 121 symbol sounds/kick;
#X obj 18 41 select 0 1 2 3 4 5 6 7 8;
#X msg 182 84 symbol sounds/snare;
#N canvas 0 97 450 278 (subpatch) 0;
#X array sound_12 248063 float 2;
#X coords 0 0.1 248063 -0.1 100 50 1 0 0;
#X restore 309 421 graph;
#X obj 307 308 soundfiler;
#X floatatom 307 341 10 0 0 0 - - -;
#X obj 304 241 r changeSound;
#N canvas 0 97 450 278 (subpatch) 0;
#X array sound_13 77175 float 2;
#X coords 0 0.1 77175 -0.1 100 50 1 0 0;
#X restore 547 420 graph;
#X obj 545 307 soundfiler;
#X floatatom 545 340 10 0 0 0 - - -;
#X obj 542 240 r changeSound;
#N canvas 0 97 450 278 (subpatch) 0;
#X array sound_14 13024 float 2;
#X coords 0 0.1 13024 -0.1 100 50 1 0 0;
#X restore 787 420 graph;
#X obj 785 307 soundfiler;
#X floatatom 785 340 10 0 0 0 - - -;
#X obj 782 240 r changeSound;
#X msg 307 273 read -resize \$1/12.wav sound_12;
#X obj 307 374 s end_sound_12;
#X obj 545 373 s end_sound_13;
#X msg 545 272 read -resize \$1/13.wav sound_13;
#X msg 785 272 read -resize \$1/14.wav sound_14;
#X obj 785 373 s end_sound_14;
#X text 77 5 inlet: int value of selected_kit chage directory name
to load sound;
#X text 53 205 Load sound for each drumpad button (16 buttons);
#N canvas 0 97 450 278 (subpatch) 0;
#X array sound_21 50531 float 2;
#X coords 0 0.1 50531 -0.1 100 50 1 0 0;
#X restore 59 677 graph;
#X obj 57 564 soundfiler;
#X floatatom 57 597 10 0 0 0 - - -;
#X obj 54 497 r changeSound;
#N canvas 0 97 450 278 (subpatch) 0;
#X array sound_22 421760 float 2;
#X coords 0 0.1 421760 -0.1 100 50 1 0 0;
#X restore 308 675 graph;
#X obj 306 562 soundfiler;
#X floatatom 306 595 10 0 0 0 - - -;
#X obj 303 495 r changeSound;
#N canvas 0 97 450 278 (subpatch) 0;
#X array sound_23 389184 float 2;
#X coords 0 0.1 389184 -0.1 100 50 1 0 0;
#X restore 546 674 graph;
#X obj 544 561 soundfiler;
#X floatatom 544 594 10 0 0 0 - - -;
#X obj 541 494 r changeSound;
#N canvas 0 97 450 278 (subpatch) 0;
#X array sound_24 36497 float 2;
#X coords 0 0.1 36497 -0.1 100 50 1 0 0;
#X restore 787 674 graph;
#X obj 784 561 soundfiler;
#X floatatom 784 594 10 0 0 0 - - -;
#X obj 781 494 r changeSound;
#N canvas 0 97 450 278 (subpatch) 0;
#X array sound_31 181913 float 2;
#X coords 0 0.1 181913 -0.1 100 50 1 0 0;
#X restore 55 958 graph;
#X obj 53 845 soundfiler;
#X floatatom 53 878 10 0 0 0 - - -;
#X obj 50 778 r changeSound;
#N canvas 0 97 450 278 (subpatch) 0;
#X array sound_32 24830 float 2;
#X coords 0 0.1 24830 -0.1 100 50 1 0 0;
#X restore 304 956 graph;
#X obj 302 843 soundfiler;
#X floatatom 302 876 10 0 0 0 - - -;
#X obj 299 776 r changeSound;
#N canvas 0 97 450 278 (subpatch) 0;
#X array sound_33 13391 float 2;
#X coords 0 0.1 13391 -0.1 100 50 1 0 0;
#X restore 542 955 graph;
#X obj 540 842 soundfiler;
#X floatatom 540 875 10 0 0 0 - - -;
#X obj 537 775 r changeSound;
#N canvas 0 97 450 278 (subpatch) 0;
#X array sound_34 101063 float 2;
#X coords 0 0.1 101063 -0.1 100 50 1 0 0;
#X restore 782 955 graph;
#X obj 780 842 soundfiler;
#X floatatom 780 875 10 0 0 0 - - -;
#X obj 777 775 r changeSound;
#N canvas 0 97 450 278 (subpatch) 0;
#X array sound_41 27519 float 2;
#X coords 0 0.1 27519 -0.1 100 50 1 0 0;
#X restore 54 1212 graph;
#X obj 52 1099 soundfiler;
#X floatatom 52 1132 10 0 0 0 - - -;
#X obj 49 1032 r changeSound;
#N canvas 0 97 450 278 (subpatch) 0;
#X array sound_42 18375 float 2;
#X coords 0 0.1 18375 -0.1 100 50 1 0 0;
#X restore 303 1210 graph;
#X obj 301 1097 soundfiler;
#X floatatom 301 1130 10 0 0 0 - - -;
#X obj 298 1030 r changeSound;
#N canvas 0 97 450 278 (subpatch) 0;
#X array sound_43 27519 float 2;
#X coords 0 0.1 27519 -0.1 100 50 1 0 0;
#X restore 541 1209 graph;
#X obj 539 1096 soundfiler;
#X floatatom 539 1129 10 0 0 0 - - -;
#X obj 536 1029 r changeSound;
#N canvas 0 97 450 278 (subpatch) 0;
#X array sound_44 18375 float 2;
#X coords 0 0.1 18375 -0.1 100 50 1 0 0;
#X restore 781 1209 graph;
#X obj 779 1096 soundfiler;
#X floatatom 779 1129 10 0 0 0 - - -;
#X obj 776 1029 r changeSound;
#X msg 57 529 read -resize \$1/21.wav sound_21;
#X obj 57 630 s end_sound_21;
#X msg 306 527 read -resize \$1/22.wav sound_22;
#X obj 306 628 s end_sound_22;
#X msg 544 526 read -resize \$1/23.wav sound_23;
#X obj 544 627 s end_sound_23;
#X msg 784 526 read -resize \$1/24.wav sound_24;
#X obj 784 627 s end_sound_24;
#X msg 53 810 read -resize \$1/31.wav sound_31;
#X obj 53 911 s end_sound_31;
#X msg 302 808 read -resize \$1/32.wav sound_32;
#X obj 302 909 s end_sound_32;
#X msg 540 807 read -resize \$1/33.wav sound_33;
#X obj 540 908 s end_sound_33;
#X msg 780 807 read -resize \$1/34.wav sound_34;
#X obj 780 908 s end_sound_34;
#X msg 52 1064 read -resize \$1/41.wav sound_41;
#X obj 52 1165 s end_sound_41;
#X msg 301 1062 read -resize \$1/42.wav sound_42;
#X obj 301 1163 s end_sound_42;
#X msg 539 1061 read -resize \$1/43.wav sound_43;
#X obj 539 1162 s end_sound_43;
#X msg 779 1061 read -resize \$1/44.wav sound_44;
#X obj 779 1162 s end_sound_44;
#X connect 0 0 11 0;
#X connect 2 0 3 0;
#X connect 3 0 5 0;
#X connect 4 0 2 0;
#X connect 7 0 4 0;
#X connect 8 0 6 0;
#X connect 9 0 6 0;
#X connect 10 0 6 0;
#X connect 11 0 8 0;
#X connect 11 1 9 0;
#X connect 11 2 10 0;
#X connect 11 3 12 0;
#X connect 12 0 6 0;
#X connect 14 0 15 0;
#X connect 15 0 26 0;
#X connect 16 0 25 0;
#X connect 18 0 19 0;
#X connect 19 0 27 0;
#X connect 20 0 28 0;
#X connect 22 0 23 0;
#X connect 23 0 30 0;
#X connect 24 0 29 0;
#X connect 25 0 14 0;
#X connect 28 0 18 0;
#X connect 29 0 22 0;
#X connect 34 0 35 0;
#X connect 35 0 82 0;
#X connect 36 0 81 0;
#X connect 38 0 39 0;
#X connect 39 0 84 0;
#X connect 40 0 83 0;
#X connect 42 0 43 0;
#X connect 43 0 86 0;
#X connect 44 0 85 0;
#X connect 46 0 47 0;
#X connect 47 0 88 0;
#X connect 48 0 87 0;
#X connect 50 0 51 0;
#X connect 51 0 90 0;
#X connect 52 0 89 0;
#X connect 54 0 55 0;
#X connect 55 0 92 0;
#X connect 56 0 91 0;
#X connect 58 0 59 0;
#X connect 59 0 94 0;
#X connect 60 0 93 0;
#X connect 62 0 63 0;
#X connect 63 0 96 0;
#X connect 64 0 95 0;
#X connect 66 0 67 0;
#X connect 67 0 98 0;
#X connect 68 0 97 0;
#X connect 70 0 71 0;
#X connect 71 0 100 0;
#X connect 72 0 99 0;
#X connect 74 0 75 0;
#X connect 75 0 102 0;
#X connect 76 0 101 0;
#X connect 78 0 79 0;
#X connect 79 0 104 0;
#X connect 80 0 103 0;
#X connect 81 0 34 0;
#X connect 83 0 38 0;
#X connect 85 0 42 0;
#X connect 87 0 46 0;
#X connect 89 0 50 0;
#X connect 91 0 54 0;
#X connect 93 0 58 0;
#X connect 95 0 62 0;
#X connect 97 0 66 0;
#X connect 99 0 70 0;
#X connect 101 0 74 0;
#X connect 103 0 78 0;
#X restore 32 103 pd load_sounds;
#X obj 32 343 vline~;
#X msg 32 312 \$1 \, \$2 \$3;
#X msg 32 231 0;
#X obj 32 262 pack f f f;
#X text 39 291 start \, end \, duration;
#X obj 171 231 / 44.1;
#X obj 32 427 *~;
#X obj 32 455 dac~;
#X obj 193 102 s kick_vol;
#X obj 193 30 loadbang;
#X obj 50 400 r kick_vol;
#X text 29 8 python input (int);
#X obj 293 338 vline~;
#X msg 293 307 \$1 \, \$2 \$3;
#X msg 293 226 0;
#X obj 293 257 pack f f f;
#X obj 432 226 / 44.1;
#X obj 293 422 *~;
#X obj 293 450 dac~;
#X obj 311 395 r snare_vol;
#X obj 561 338 vline~;
#X msg 561 307 \$1 \, \$2 \$3;
#X msg 561 226 0;
#X obj 561 257 pack f f f;
#X obj 700 226 / 44.1;
#X obj 561 422 *~;
#X obj 561 450 dac~;
#X obj 579 395 r hh_vol;
#X obj 810 334 vline~;
#X msg 810 303 \$1 \, \$2 \$3;
#X msg 810 222 0;
#X obj 810 253 pack f f f;
#X obj 949 222 / 44.1;
#X obj 810 418 *~;
#X obj 810 446 dac~;
#X obj 828 391 r crash_vol;
#X obj 297 100 s snare_vol;
#X obj 400 100 s hh_vol;
#X obj 492 99 s crash_vol;
#X text 195 8 setup default values for volume (to be adjusted later)
;
#X obj 901 150 s~ drums;
#X text 762 11 output to loop input;
#X msg 492 66 0.7;
#X msg 400 67 0.7;
#X msg 297 68 0.7;
#X msg 193 68 0.8;
#X obj 32 191 r button-s11;
#X obj 293 186 r button-s12;
#X obj 561 186 r button-s13;
#X obj 810 182 r button-s14;
#X obj 65 231 r end_sound_11;
#X obj 171 207 r end_sound_11;
#X obj 326 226 r end_sound_12;
#X obj 432 202 r end_sound_12;
#X obj 594 226 r end_sound_13;
#X obj 700 202 r end_sound_13;
#X obj 843 222 r end_sound_14;
#X obj 949 198 r end_sound_14;
#X obj 32 373 tabread4~ sound_11;
#X obj 82 455 s~ sound_11;
#X obj 341 450 s~ sound_12;
#X obj 612 452 s~ sound_13;
#X obj 856 446 s~ sound_14;
#X obj 293 368 tabread4~ sound_12;
#X obj 561 368 tabread4~ sound_13;
#X obj 810 364 tabread4~ sound_14;
#X obj 664 38 r~ sound_11;
#X obj 830 33 r~ sound_12;
#X obj 991 34 r~ sound_13;
#X obj 1138 37 r~ sound_14;
#X obj 665 62 r~ sound_21;
#X obj 831 56 r~ sound_22;
#X obj 991 60 r~ sound_23;
#X obj 1137 61 r~ sound_24;
#X obj 665 86 r~ sound_31;
#X obj 832 82 r~ sound_32;
#X obj 993 83 r~ sound_33;
#X obj 1138 85 r~ sound_34;
#X obj 664 112 r~ sound_41;
#X obj 832 109 r~ sound_42;
#X obj 993 110 r~ sound_43;
#X obj 1143 111 r~ sound_44;
#X obj 29 650 vline~;
#X msg 29 619 \$1 \, \$2 \$3;
#X msg 29 538 0;
#X obj 29 569 pack f f f;
#X text 36 598 start \, end \, duration;
#X obj 168 538 / 44.1;
#X obj 29 734 *~;
#X obj 29 762 dac~;
#X obj 47 707 r kick_vol;
#X obj 290 645 vline~;
#X msg 290 614 \$1 \, \$2 \$3;
#X msg 290 533 0;
#X obj 290 564 pack f f f;
#X obj 429 533 / 44.1;
#X obj 290 729 *~;
#X obj 290 757 dac~;
#X obj 308 702 r snare_vol;
#X obj 558 645 vline~;
#X msg 558 614 \$1 \, \$2 \$3;
#X msg 558 533 0;
#X obj 558 564 pack f f f;
#X obj 697 533 / 44.1;
#X obj 558 729 *~;
#X obj 558 757 dac~;
#X obj 576 702 r hh_vol;
#X obj 807 641 vline~;
#X msg 807 610 \$1 \, \$2 \$3;
#X msg 807 529 0;
#X obj 807 560 pack f f f;
#X obj 946 529 / 44.1;
#X obj 807 725 *~;
#X obj 807 753 dac~;
#X obj 825 698 r crash_vol;
#X obj 29 498 r button-s21;
#X obj 62 538 r end_sound_21;
#X obj 169 515 r end_sound_21;
#X obj 29 680 tabread4~ sound_21;
#X obj 79 762 s~ sound_21;
#X obj 290 493 r button-s22;
#X obj 429 509 r end_sound_22;
#X obj 323 533 r end_sound_22;
#X obj 290 675 tabread4~ sound_22;
#X obj 338 757 s~ sound_22;
#X obj 558 493 r button-s23;
#X obj 697 509 r end_sound_23;
#X obj 591 533 r end_sound_23;
#X obj 558 675 tabread4~ sound_23;
#X obj 609 759 s~ sound_23;
#X obj 807 489 r button-s24;
#X obj 946 505 r end_sound_24;
#X obj 840 529 r end_sound_24;
#X obj 807 671 tabread4~ sound_24;
#X obj 853 753 s~ sound_24;
#X obj 31 985 vline~;
#X msg 31 954 \$1 \, \$2 \$3;
#X msg 31 873 0;
#X obj 31 904 pack f f f;
#X text 38 933 start \, end \, duration;
#X obj 170 873 / 44.1;
#X obj 31 1069 *~;
#X obj 31 1097 dac~;
#X obj 49 1042 r kick_vol;
#X obj 292 980 vline~;
#X msg 292 949 \$1 \, \$2 \$3;
#X msg 292 868 0;
#X obj 292 899 pack f f f;
#X obj 431 868 / 44.1;
#X obj 292 1064 *~;
#X obj 292 1092 dac~;
#X obj 310 1037 r snare_vol;
#X obj 560 980 vline~;
#X msg 560 949 \$1 \, \$2 \$3;
#X msg 560 868 0;
#X obj 560 899 pack f f f;
#X obj 699 868 / 44.1;
#X obj 560 1064 *~;
#X obj 560 1092 dac~;
#X obj 578 1037 r hh_vol;
#X obj 809 976 vline~;
#X msg 809 945 \$1 \, \$2 \$3;
#X msg 809 864 0;
#X obj 809 895 pack f f f;
#X obj 948 864 / 44.1;
#X obj 809 1060 *~;
#X obj 809 1088 dac~;
#X obj 827 1033 r crash_vol;
#X obj 28 1292 vline~;
#X msg 28 1261 \$1 \, \$2 \$3;
#X msg 28 1180 0;
#X obj 28 1211 pack f f f;
#X text 35 1240 start \, end \, duration;
#X obj 167 1180 / 44.1;
#X obj 28 1376 *~;
#X obj 28 1404 dac~;
#X obj 46 1349 r kick_vol;
#X obj 289 1287 vline~;
#X msg 289 1256 \$1 \, \$2 \$3;
#X msg 289 1175 0;
#X obj 289 1206 pack f f f;
#X obj 428 1175 / 44.1;
#X obj 289 1371 *~;
#X obj 289 1399 dac~;
#X obj 307 1344 r snare_vol;
#X obj 557 1287 vline~;
#X msg 557 1256 \$1 \, \$2 \$3;
#X msg 557 1175 0;
#X obj 557 1206 pack f f f;
#X obj 696 1175 / 44.1;
#X obj 557 1371 *~;
#X obj 557 1399 dac~;
#X obj 575 1344 r hh_vol;
#X obj 806 1283 vline~;
#X msg 806 1252 \$1 \, \$2 \$3;
#X msg 806 1171 0;
#X obj 806 1202 pack f f f;
#X obj 945 1171 / 44.1;
#X obj 806 1367 *~;
#X obj 806 1395 dac~;
#X obj 824 1340 r crash_vol;
#X obj 590 1175 r end_sound_23;
#X obj 31 833 r button-s31;
#X obj 170 849 r end_sound_31;
#X obj 64 873 r end_sound_31;
#X obj 31 1015 tabread4~ sound_31;
#X obj 81 1097 s~ sound_31;
#X obj 292 828 r button-s32;
#X obj 431 844 r end_sound_32;
#X obj 325 868 r end_sound_32;
#X obj 292 1010 tabread4~ sound_32;
#X obj 340 1092 s~ sound_32;
#X obj 560 828 r button-s33;
#X obj 699 844 r end_sound_33;
#X obj 593 868 r end_sound_33;
#X obj 560 1010 tabread4~ sound_33;
#X obj 611 1094 s~ sound_33;
#X obj 810 824 r button-s34;
#X obj 948 840 r end_sound_34;
#X obj 842 864 r end_sound_34;
#X obj 809 1006 tabread4~ sound_34;
#X obj 855 1088 s~ sound_34;
#X obj 28 1140 r button-s41;
#X obj 289 1135 r button-s42;
#X obj 61 1180 r end_sound_41;
#X obj 168 1157 r end_sound_41;
#X obj 28 1322 tabread4~ sound_41;
#X obj 78 1404 s~ sound_41;
#X obj 428 1151 r end_sound_42;
#X obj 322 1175 r end_sound_42;
#X obj 289 1317 tabread4~ sound_42;
#X obj 337 1399 s~ sound_42;
#X obj 557 1135 r button-s43;
#X obj 696 1151 r end_sound_43;
#X obj 557 1317 tabread4~ sound_43;
#X obj 608 1401 s~ sound_43;
#X obj 806 1131 r button-s44;
#X obj 945 1147 r end_sound_44;
#X obj 839 1171 r end_sound_44;
#X obj 806 1313 tabread4~ sound_44;
#X obj 852 1395 s~ sound_44;
#X connect 0 0 1 0;
#X connect 2 0 60 0;
#X connect 3 0 2 0;
#X connect 4 0 5 0;
#X connect 5 0 3 0;
#X connect 7 0 5 2;
#X connect 8 0 9 0;
#X connect 8 0 9 1;
#X connect 8 0 61 0;
#X connect 11 0 44 0;
#X connect 11 0 45 0;
#X connect 11 0 46 0;
#X connect 11 0 47 0;
#X connect 12 0 8 1;
#X connect 14 0 65 0;
#X connect 15 0 14 0;
#X connect 16 0 17 0;
#X connect 17 0 15 0;
#X connect 18 0 17 2;
#X connect 19 0 20 0;
#X connect 19 0 20 1;
#X connect 19 0 62 0;
#X connect 21 0 19 1;
#X connect 22 0 66 0;
#X connect 23 0 22 0;
#X connect 24 0 25 0;
#X connect 25 0 23 0;
#X connect 26 0 25 2;
#X connect 27 0 28 0;
#X connect 27 0 28 1;
#X connect 27 0 63 0;
#X connect 29 0 27 1;
#X connect 30 0 67 0;
#X connect 31 0 30 0;
#X connect 32 0 33 0;
#X connect 33 0 31 0;
#X connect 34 0 33 2;
#X connect 35 0 36 0;
#X connect 35 0 36 1;
#X connect 35 0 64 0;
#X connect 37 0 35 1;
#X connect 44 0 40 0;
#X connect 45 0 39 0;
#X connect 46 0 38 0;
#X connect 47 0 10 0;
#X connect 48 0 4 0;
#X connect 49 0 16 0;
#X connect 50 0 24 0;
#X connect 51 0 32 0;
#X connect 52 0 5 1;
#X connect 53 0 7 0;
#X connect 54 0 17 1;
#X connect 55 0 18 0;
#X connect 56 0 25 1;
#X connect 57 0 26 0;
#X connect 58 0 33 1;
#X connect 59 0 34 0;
#X connect 60 0 8 0;
#X connect 65 0 19 0;
#X connect 66 0 27 0;
#X connect 67 0 35 0;
#X connect 68 0 42 0;
#X connect 69 0 42 0;
#X connect 70 0 42 0;
#X connect 71 0 42 0;
#X connect 72 0 42 0;
#X connect 73 0 42 0;
#X connect 74 0 42 0;
#X connect 75 0 42 0;
#X connect 76 0 42 0;
#X connect 77 0 42 0;
#X connect 78 0 42 0;
#X connect 79 0 42 0;
#X connect 80 0 42 0;
#X connect 81 0 42 0;
#X connect 82 0 42 0;
#X connect 83 0 42 0;
#X connect 84 0 120 0;
#X connect 85 0 84 0;
#X connect 86 0 87 0;
#X connect 87 0 85 0;
#X connect 89 0 87 2;
#X connect 90 0 91 0;
#X connect 90 0 91 1;
#X connect 90 0 121 0;
#X connect 92 0 90 1;
#X connect 93 0 125 0;
#X connect 94 0 93 0;
#X connect 95 0 96 0;
#X connect 96 0 94 0;
#X connect 97 0 96 2;
#X connect 98 0 99 0;
#X connect 98 0 99 1;
#X connect 98 0 126 0;
#X connect 100 0 98 1;
#X connect 101 0 130 0;
#X connect 102 0 101 0;
#X connect 103 0 104 0;
#X connect 104 0 102 0;
#X connect 105 0 104 2;
#X connect 106 0 107 0;
#X connect 106 0 107 1;
#X connect 106 0 131 0;
#X connect 108 0 106 1;
#X connect 109 0 135 0;
#X connect 110 0 109 0;
#X connect 111 0 112 0;
#X connect 112 0 110 0;
#X connect 113 0 112 2;
#X connect 114 0 115 0;
#X connect 114 0 115 1;
#X connect 114 0 136 0;
#X connect 116 0 114 1;
#X connect 117 0 86 0;
#X connect 118 0 87 1;
#X connect 119 0 89 0;
#X connect 120 0 90 0;
#X connect 122 0 95 0;
#X connect 123 0 97 0;
#X connect 124 0 96 1;
#X connect 125 0 98 0;
#X connect 127 0 103 0;
#X connect 128 0 105 0;
#X connect 129 0 104 1;
#X connect 130 0 106 0;
#X connect 132 0 111 0;
#X connect 133 0 113 0;
#X connect 134 0 112 1;
#X connect 135 0 114 0;
#X connect 137 0 207 0;
#X connect 138 0 137 0;
#X connect 139 0 140 0;
#X connect 140 0 138 0;
#X connect 142 0 140 2;
#X connect 143 0 144 0;
#X connect 143 0 144 1;
#X connect 143 0 208 0;
#X connect 145 0 143 1;
#X connect 146 0 212 0;
#X connect 147 0 146 0;
#X connect 148 0 149 0;
#X connect 149 0 147 0;
#X connect 150 0 149 2;
#X connect 151 0 152 0;
#X connect 151 0 152 1;
#X connect 151 0 213 0;
#X connect 153 0 151 1;
#X connect 154 0 217 0;
#X connect 155 0 154 0;
#X connect 156 0 157 0;
#X connect 157 0 155 0;
#X connect 158 0 157 2;
#X connect 159 0 160 0;
#X connect 159 0 160 1;
#X connect 159 0 218 0;
#X connect 161 0 159 1;
#X connect 162 0 222 0;
#X connect 163 0 162 0;
#X connect 164 0 165 0;
#X connect 165 0 163 0;
#X connect 166 0 165 2;
#X connect 167 0 168 0;
#X connect 167 0 168 1;
#X connect 167 0 223 0;
#X connect 169 0 167 1;
#X connect 170 0 228 0;
#X connect 171 0 170 0;
#X connect 172 0 173 0;
#X connect 173 0 171 0;
#X connect 175 0 173 2;
#X connect 176 0 177 0;
#X connect 176 0 177 1;
#X connect 176 0 229 0;
#X connect 178 0 176 1;
#X connect 179 0 232 0;
#X connect 180 0 179 0;
#X connect 181 0 182 0;
#X connect 182 0 180 0;
#X connect 183 0 182 2;
#X connect 184 0 185 0;
#X connect 184 0 185 1;
#X connect 184 0 233 0;
#X connect 186 0 184 1;
#X connect 187 0 236 0;
#X connect 188 0 187 0;
#X connect 189 0 190 0;
#X connect 190 0 188 0;
#X connect 191 0 190 2;
#X connect 192 0 193 0;
#X connect 192 0 193 1;
#X connect 192 0 237 0;
#X connect 194 0 192 1;
#X connect 195 0 241 0;
#X connect 196 0 195 0;
#X connect 197 0 198 0;
#X connect 198 0 196 0;
#X connect 199 0 198 2;
#X connect 200 0 201 0;
#X connect 200 0 201 1;
#X connect 200 0 242 0;
#X connect 202 0 200 1;
#X connect 203 0 190 1;
#X connect 204 0 139 0;
#X connect 205 0 142 0;
#X connect 206 0 140 1;
#X connect 207 0 143 0;
#X connect 209 0 148 0;
#X connect 210 0 150 0;
#X connect 211 0 149 1;
#X connect 212 0 151 0;
#X connect 214 0 156 0;
#X connect 215 0 158 0;
#X connect 216 0 157 1;
#X connect 217 0 159 0;
#X connect 219 0 164 0;
#X connect 220 0 166 0;
#X connect 221 0 165 1;
#X connect 222 0 167 0;
#X connect 224 0 172 0;
#X connect 225 0 181 0;
#X connect 226 0 173 1;
#X connect 227 0 175 0;
#X connect 228 0 176 0;
#X connect 230 0 183 0;
#X connect 231 0 182 1;
#X connect 232 0 184 0;
#X connect 234 0 189 0;
#X connect 235 0 191 0;
#X connect 236 0 192 0;
#X connect 238 0 197 0;
#X connect 239 0 199 0;
#X connect 240 0 198 1;
#X connect 241 0 200 0;
#X restore 450 178 pd drumbox;
#X msg 14 34 \; pd dsp \$1;
#X obj 14 9 tgl 15 0 empty dsp_status empty 17 7 0 10 -262144 -1 -1
1 1;
#X text 527 8 python input router and init values;
#X text 38 8 toggle sound;
#X obj 25 143 loop 1;
#X obj 134 144 loop 2;
#X obj 233 142 loop 3;
#X obj 335 138 loop 4;
#X obj 25 251 loop 5;
#X obj 131 251 loop 6;
#X obj 232 252 loop 7;
#X obj 334 250 loop 8;
#N canvas 381 240 725 480 init_loop 0;
#X obj 96 205 r lp-trig-1;
#X obj 86 182 r lp-trig-2;
#X obj 77 160 r lp-trig-3;
#X obj 64 137 r lp-trig-4;
#X obj 50 114 r lp-trig-5;
#X obj 36 93 r lp-trig-6;
#X obj 21 71 r lp-trig-7;
#X obj 6 50 r lp-trig-8;
#X obj 96 260 bng 15 250 50 0 empty empty empty 17 7 0 10 -262144 -1
-1;
#X obj 96 320 f;
#X obj 96 401 s press-one;
#X obj 192 401 s press-two;
#X obj 135 319 + 1;
#X obj 367 125 r press-one;
#X obj 367 178 timer;
#X obj 473 125 r press-two;
#X obj 367 236 s loop-time;
#X text 435 101 Timer;
#X obj 473 176 s play;
#X msg 135 289 0;
#X text 181 32 This is for the initial loop tempo. The function checks
the first and second press of the button and sends play if the second
push has been done.;
#X obj 235 263 loadbang;
#X text 9 421 first press on the button;
#X text 192 421 second press on the button;
#X obj 135 263 r clear-loops;
#X obj 96 360 sel 0 1 2;
#X obj 287 402 s press-three;
#X connect 0 0 8 0;
#X connect 1 0 8 0;
#X connect 2 0 8 0;
#X connect 3 0 8 0;
#X connect 4 0 8 0;
#X connect 5 0 8 0;
#X connect 6 0 8 0;
#X connect 7 0 8 0;
#X connect 8 0 9 0;
#X connect 9 0 12 0;
#X connect 9 0 25 0;
#X connect 12 0 9 1;
#X connect 13 0 14 0;
#X connect 14 0 16 0;
#X connect 15 0 14 1;
#X connect 15 0 18 0;
#X connect 19 0 9 1;
#X connect 21 0 19 0;
#X connect 24 0 19 0;
#X connect 25 0 10 0;
#X connect 25 1 11 0;
#X connect 25 2 26 0;
#X restore 450 40 pd init_loop;
#X obj 160 8 bng 15 250 50 0 empty clear-all empty 17 7 0 10 -262144
-1 -1;
#N canvas 23 420 450 300 clear-loops 0;
#X obj 25 84 s clear-1;
#X obj 25 111 s clear-2;
#X obj 116 84 s clear-3;
#X obj 116 111 s clear-4;
#X obj 201 84 s clear-5;
#X obj 201 111 s clear-6;
#X obj 280 84 s clear-7;
#X obj 280 111 s clear-8;
#X obj 101 42 inlet;
#X obj 101 158 s clear-loops;
#X connect 8 0 0 0;
#X connect 8 0 1 0;
#X connect 8 0 2 0;
#X connect 8 0 3 0;
#X connect 8 0 4 0;
#X connect 8 0 5 0;
#X connect 8 0 6 0;
#X connect 8 0 7 0;
#X connect 8 0 9 0;
#X restore 160 30 pd clear-loops;
#N canvas 285 176 400 413 loop_player 0;
#N canvas 358 97 698 474 combine_loops 0;
#X obj 149 50 loop_output 1;
#X obj 151 76 loop_output 2;
#X obj 151 101 loop_output 3;
#X obj 152 128 loop_output 4;
#X obj 152 154 loop_output 5;
#X obj 154 178 loop_output 6;
#X obj 156 204 loop_output 7;
#X obj 157 227 loop_output 8;
#X obj 133 445 dac~;
#X text 18 296 main loop sound;
#X text 16 13 volume control and master volume setting;
#X obj 376 114 *~;
#X text 17 27 LEFT: Main output of loop \, RIGHT: Fade out part of
the loop;
#X obj 376 145 dac~;
#X obj 222 409 *~;
#X text 228 322 reverb;
#X obj 267 409 *~;
#X obj 221 344 rev2~ 100 50 3000 50;
#X msg 285 385 0.2;
#X text 411 115 if loop position is 0: fade-out;
#X msg 181 279 1;
#X obj 181 256 loadbang;
#X obj 394 68 loadbang;
#X msg 394 91 1;
#X obj 285 360 loadbang;
#X obj 135 297 *~;
#X obj 340 261 r slide-vol-master;
#X obj 343 290 / 255;
#X obj 138 334 *~;
#X connect 0 0 25 0;
#X connect 0 1 11 0;
#X connect 1 0 25 0;
#X connect 1 1 11 0;
#X connect 2 0 25 0;
#X connect 2 1 11 0;
#X connect 3 0 25 0;
#X connect 3 1 11 0;
#X connect 4 0 25 0;
#X connect 4 1 11 0;
#X connect 5 0 25 0;
#X connect 5 1 11 0;
#X connect 6 0 25 0;
#X connect 6 1 11 0;
#X connect 7 0 25 0;
#X connect 7 1 11 0;
#X connect 11 0 13 0;
#X connect 11 0 13 1;
#X connect 14 0 8 0;
#X connect 16 0 8 1;
#X connect 17 0 14 0;
#X connect 17 1 16 0;
#X connect 18 0 14 1;
#X connect 18 0 16 1;
#X connect 20 0 25 1;
#X connect 21 0 20 0;
#X connect 22 0 23 0;
#X connect 23 0 11 1;
#X connect 24 0 18 0;
#X connect 25 0 28 0;
#X connect 26 0 27 0;
#X connect 27 0 28 1;
#X connect 28 0 17 0;
#X connect 28 0 8 0;
#X connect 28 0 8 1;
#X restore 19 78 pd combine_loops;
#X text 20 57 Play loops:;
#X obj 225 38 r loop-time;
#X obj 225 86 s sample-rate;
#X obj 15 130 r play;
#X obj 225 61 * 44.1;
#X obj 65 226 metro;
#X msg 15 155 1;
#X msg 65 155 0;
#X obj 65 251 f;
#X obj 105 251 + 1;
#X obj 65 310 mod;
#X obj 97 202 /;
#X text 63 107 metronome;
#X text 223 17 loop time to samples;
#X obj 65 130 r clear-loops;
#X obj 65 337 hradio 15 1 0 8 empty empty empty 0 -8 0 10 -262144 -1
-1 7;
#X msg 97 310 number \$1;
#X obj 65 363 s counter;
#X obj 83 280 r signature;
#X obj 115 178 r signature;
#X obj 97 155 r loop-time;
#X obj 225 164 r loop-time;
#X text 223 126 transform loop time;
#X text 223 142 to decent timed bpm;
#X obj 225 192 / 500;
#X obj 225 240 + 0.5;
#X obj 225 264 int;
#X text 268 192 each 1/2 second;
#X obj 225 365 s signature;
#X obj 225 316 min 16;
#X obj 225 217 / 8;
#X text 256 217 devisable by 8;
#X obj 225 290 * 8;
#X obj 225 339 max 4;
#X connect 2 0 5 0;
#X connect 4 0 7 0;
#X connect 5 0 3 0;
#X connect 6 0 9 0;
#X connect 7 0 6 0;
#X connect 8 0 6 0;
#X connect 8 0 9 1;
#X connect 9 0 10 0;
#X connect 9 0 11 0;
#X connect 10 0 9 1;
#X connect 11 0 16 0;
#X connect 12 0 6 1;
#X connect 15 0 8 0;
#X connect 16 0 18 0;
#X connect 17 0 16 0;
#X connect 19 0 11 1;
#X connect 19 0 17 0;
#X connect 20 0 12 1;
#X connect 21 0 12 0;
#X connect 22 0 25 0;
#X connect 25 0 31 0;
#X connect 26 0 27 0;
#X connect 27 0 33 0;
#X connect 30 0 34 0;
#X connect 31 0 26 0;
#X connect 33 0 30 0;
#X connect 34 0 29 0;
#X restore 450 69 pd loop_player;
#X obj 76 113 tgl 15 0 empty mute-1 empty 17 7 0 10 -4032 -1 -1 0 1
;
#X obj 182 114 tgl 15 0 empty mute-2 empty 17 7 0 10 -4032 -1 -1 0
1;
#X obj 283 111 tgl 15 0 empty mute-3 empty 17 7 0 10 -4032 -1 -1 0
1;
#X obj 386 109 tgl 15 0 empty mute-4 empty 17 7 0 10 -4032 -1 -1 0
1;
#X obj 75 222 tgl 15 0 empty mute-5 empty 17 7 0 10 -4032 -1 -1 0 1
;
#X obj 180 223 tgl 15 0 empty mute-6 empty 17 7 0 10 -4032 -1 -1 0
1;
#X obj 281 223 tgl 15 0 empty mute-7 empty 17 7 0 10 -4032 -1 -1 0
1;
#X obj 385 225 tgl 15 0 empty mute-8 empty 17 7 0 10 -4032 -1 -1 0
1;
#X obj 76 134 tgl 15 0 empty rec-loop-1 empty 17 7 0 10 -4034 -1 -1
0 1;
#X obj 183 136 tgl 15 0 empty rec-loop-2 empty 17 7 0 10 -4034 -1 -1
0 1;
#X obj 283 133 tgl 15 0 empty rec-loop-3 empty 17 7 0 10 -4034 -1 -1
0 1;
#X obj 386 130 tgl 15 0 empty rec-loop-4 empty 17 7 0 10 -4034 -1 -1
0 1;
#X obj 75 243 tgl 15 0 empty rec-loop-5 empty 17 7 0 10 -4034 -1 -1
0 1;
#X obj 180 243 tgl 15 0 empty rec-loop-6 empty 17 7 0 10 -4034 -1 -1
0 1;
#X obj 282 243 tgl 15 0 empty rec-loop-7 empty 17 7 0 10 -4034 -1 -1
0 1;
#X obj 385 246 tgl 15 0 empty rec-loop-8 empty 17 7 0 10 -4034 -1 -1
0 1;
#N canvas 302 134 962 586 send_msg 0;
#X obj 225 345 r counter;
#X obj 24 51 loadbang;
#X obj 24 390 netsend;
#X floatatom 24 413 5 0 0 0 - - -;
#X msg 24 84 connect 127.0.0.1 4000;
#X msg 42 142 disconnect;
#X obj 407 228 r start-rec;
#X obj 409 255 t f;
#X obj 412 359 r stop-rec;
#X obj 718 241 r wait-rec;
#X obj 718 264 t f;
#X obj 97 52 r connect;
#X obj 42 114 r disconnect;
#X obj 722 363 r mute-rec;
#X obj 224 230 r clear-rec;
#X obj 224 253 t f;
#X text 15 5 send status messages to python and initiate the connection
to the socket;
#X text 721 347 1: mute status 2: loop nr;
#X obj 300 346 r signature;
#X obj 225 371 pack f f;
#X obj 580 241 r start-overdub;
#X obj 580 264 t f;
#X obj 722 413 s msg;
#X obj 42 361 r msg;
#X obj 224 300 s msg;
#X obj 225 422 s msg;
#X obj 409 302 s msg;
#X obj 412 406 s msg;
#X obj 718 310 s msg;
#X obj 580 310 s msg;
#X text 576 226 ----------;
#X text 223 332 ----------;
#X text 716 227 ----------;
#X text 578 335 ----------;
#X obj 579 374 t f;
#X obj 579 420 s msg;
#X obj 579 351 r stop-overdub;
#X text 224 36 Message protocol. Byte are separeted from | First byte:
-0: Track state \, -1: Metronome counter;
#X text 233 168 If metronome message (first byte = 1) Second byte:
actual count Third byte: max;
#X msg 224 277 send 0|0|\$1|;
#X msg 580 287 send 0|3|\$1|;
#X msg 579 397 send 0|4|\$1|;
#X msg 718 287 send 0|5|\$1|;
#X msg 409 279 send 0|1|\$1|;
#X msg 225 399 send 1|\$1|\$2|;
#X msg 722 390 send 0|6|\$2|;
#X msg 412 382 send 0|2|\$2|;
#X text 425 339 CHANGED ----------;
#X text 231 76 If track state message (first byte = 0) Second byte:
0:CLEAR_REC 1:START_REC 2:STOP_REC 3:START_OVERDUB 4:STOP_OVERDUB 5:WAIT_REC
6:MUTE_REC Third byte: Track number;
#X connect 0 0 19 0;
#X connect 1 0 4 0;
#X connect 2 0 3 0;
#X connect 4 0 2 0;
#X connect 5 0 2 0;
#X connect 6 0 7 0;
#X connect 7 0 43 0;
#X connect 8 0 46 0;
#X connect 9 0 10 0;
#X connect 10 0 42 0;
#X connect 11 0 4 0;
#X connect 12 0 5 0;
#X connect 13 0 45 0;
#X connect 14 0 15 0;
#X connect 15 0 39 0;
#X connect 18 0 19 1;
#X connect 19 0 44 0;
#X connect 20 0 21 0;
#X connect 21 0 40 0;
#X connect 23 0 2 0;
#X connect 34 0 41 0;
#X connect 36 0 34 0;
#X connect 39 0 24 0;
#X connect 40 0 29 0;
#X connect 41 0 35 0;
#X connect 42 0 28 0;
#X connect 43 0 26 0;
#X connect 44 0 25 0;
#X connect 45 0 22 0;
#X connect 46 0 27 0;
#X restore 449 97 pd send_msg;
#X text 543 39 initial loop settings;
#X text 560 68 playing loops and metronome;
#X text 538 97 sending messages to Python;
#N canvas 507 97 450 300 audio_input 0;
#X obj 79 196 s~ audio;
#X obj 28 47 adc~;
#X obj 28 134 *~;
#X obj 46 85 loadbang;
#X text 23 18 The audio input from the soundcard;
#X text 133 148 volume;
#X obj 28 172 dac~;
#X obj 79 171 *~;
#X msg 97 148 1;
#X obj 117 85 r audio_input_toggle;
#X obj 46 112 tgl 15 0 empty empty empty 17 7 0 10 -262144 -1 -1 1
1;
#X connect 1 0 2 0;
#X connect 2 0 6 0;
#X connect 2 0 6 1;
#X connect 2 0 7 0;
#X connect 3 0 8 0;
#X connect 3 0 10 0;
#X connect 7 0 0 0;
#X connect 8 0 7 1;
#X connect 9 0 10 0;
#X connect 10 0 2 1;
#X restore 449 205 pd audio_input;
#X text 562 205 audio input (soundcard);
#X obj 217 506 bng 45 250 50 0 button-s43 button-15 empty 0 55 0 10
-4034 -1 -1;
#X obj 219 434 bng 45 250 50 0 button-s33 button-11 empty 0 55 0 10
-258113 -1 -1;
#X obj 221 294 bng 45 250 50 0 button-s13 button-3 empty 0 55 0 9 -4160
-1 -1;
#X obj 221 363 bng 45 250 50 0 button-s23 button-7 empty 0 55 0 10
-4032 -1 -1;
#X obj 285 505 bng 45 250 50 0 button-s44 button-16 empty 0 55 0 10
-4034 -1 -1;
#X obj 287 434 bng 45 250 50 0 button-s34 button-12 empty 0 55 0 10
-258113 -1 -1;
#X obj 292 295 bng 45 250 50 0 button-s14 button-4 empty 0 55 0 9 -4160
-1 -1;
#X obj 293 361 bng 45 250 50 0 button-s24 button-8 empty 0 55 0 10
-4032 -1 -1;
#X obj 96 94 vsl 15 60 0 255 0 1 slide-vol-1 lslide-vol-1 empty 0 -9
0 10 -262144 -1 -1 0 1;
#X obj 1117 644 / 255;
#X obj 1117 621 r l-vol-\$1;
#X obj 1127 654 / 255;
#X obj 1127 631 r l-vol-\$1;
#X obj 1137 664 / 255;
#X obj 1137 641 r l-vol-\$1;
#X obj 1147 674 / 255;
#X obj 1147 651 r l-vol-\$1;
#X obj 1157 684 / 255;
#X obj 1157 661 r l-vol-\$1;
#X obj 1167 694 / 255;
#X obj 1167 671 r l-vol-\$1;
#X obj 94 204 vsl 15 60 0 255 0 1 slide-vol-5 lslide-vol-5 empty 0
-9 0 10 -262144 -1 -1 2499 1;
#X obj 199 94 vsl 15 60 0 255 0 1 slide-vol-2 lslide-vol-2 empty 0
-9 0 10 -262144 -1 -1 0 1;
#X obj 197 204 vsl 15 60 0 255 0 1 slide-vol-6 lslide-vol-6 empty 0
-9 0 10 -262144 -1 -1 0 1;
#X obj 302 94 vsl 15 60 0 255 0 1 slide-vol-3 lslide-vol-3 empty 0
-9 0 10 -262144 -1 -1 2129 1;
#X obj 300 204 vsl 15 60 0 255 0 1 slide-vol-7 lslide-vol-7 empty 0
-9 0 10 -262144 -1 -1 2499 1;
#X obj 406 93 vsl 15 60 0 255 0 1 slide-vol-4 lslide-vol-4 empty 0
-9 0 10 -262144 -1 -1 2476 1;
#X obj 404 203 vsl 15 60 0 255 0 1 slide-vol-8 lslide-vol-8 empty 0
-9 0 10 -262144 -1 -1 0 1;
#X obj 397 369 vsl 15 60 0 255 0 1 slide-vol-master lslide-vol-master
empty 0 -9 0 10 -262144 -1 -1 5800 1;
#X text 529 178 drumbox logic;
#X text 359 435 Master volume;
#X connect 27 0 26 0;
#X connect 39 0 40 0;
#X connect 74 0 73 0;
#X connect 76 0 75 0;
#X connect 78 0 77 0;
#X connect 80 0 79 0;
#X connect 82 0 81 0;
#X connect 84 0 83 0;
